solid ascii
  facet normal -8.575379e-019 -3.335633e-017 -1.000000e+000
    outer loop
      vertex   -3.620913e+001 5.006460e+001 -1.074527e-001
      vertex   -3.842545e+000 5.006460e+001 -1.074527e-001
      vertex   -3.657429e+001 4.799375e+001 -1.074527e-001
    endloop
  endfacet
  facet normal -4.193078e-019 -4.028299e-017 -1.000000e+000
    outer loop
      vertex   -3.657429e+001 4.799375e+001 -1.074527e-001
      vertex   -3.842545e+000 5.006460e+001 -1.074527e-001
      vertex   -3.477391e+000 4.799375e+001 -1.074527e-001
    endloop
  endfacet
  facet normal -4.193078e-019 -1.303477e-017 -1.000000e+000
    outer loop
      vertex   -3.288586e+000 4.692301e+001 -1.074527e-001
      vertex   -3.657429e+001 4.799375e+001 -1.074527e-001
      vertex   -3.477391e+000 4.799375e+001 -1.074527e-001
    endloop
  endfacet
  facet normal 0.000000e+000 0.000000e+000 -1.000000e+000
    outer loop
      vertex   -3.288586e+000 4.692301e+001 -1.074527e-001
      vertex   -3.676309e+001 4.692301e+001 -1.074527e-001
      vertex   -3.657429e+001 4.799375e+001 -1.074527e-001
    endloop
  endfacet
  facet normal -5.136464e-031 -1.266936e-017 -1.000000e+000
    outer loop
      vertex   -3.288586e+000 4.692301e+001 -1.074527e-001
      vertex   -3.695624e+001 4.582762e+001 -1.074527e-001
      vertex   -3.676309e+001 4.692301e+001 -1.074527e-001
    endloop
  endfacet
  facet normal -4.098481e-019 -7.226875e-020 -1.000000e+000
    outer loop
      vertex   -3.288586e+000 4.692301e+001 -1.074527e-001
      vertex   -3.095437e+000 4.582762e+001 -1.074527e-001
      vertex   -3.695624e+001 4.582762e+001 -1.074527e-001
    endloop
  endfacet
  facet normal -4.098481e-019 1.245348e-017 -1.000000e+000
    outer loop
      vertex   -3.695624e+001 4.582762e+001 -1.074527e-001
      vertex   -3.095437e+000 4.582762e+001 -1.074527e-001
      vertex   -3.715389e+001 4.470675e+001 -1.074527e-001
    endloop
  endfacet
  facet normal -8.102376e-019 2.461954e-017 -1.000000e+000
    outer loop
      vertex   -3.715389e+001 4.470675e+001 -1.074527e-001
      vertex   -3.095437e+000 4.582762e+001 -1.074527e-001
      vertex   -2.897792e+000 4.470675e+001 -1.074527e-001
    endloop
  endfacet
  facet normal -8.102376e-019 -1.428695e-019 -1.000000e+000
    outer loop
      vertex   -2.695494e+000 4.355948e+001 -1.074527e-001
      vertex   -3.715389e+001 4.470675e+001 -1.074527e-001
      vertex   -2.897792e+000 4.470675e+001 -1.074527e-001
    endloop
  endfacet
  facet normal -8.007796e-019 1.412018e-019 -1.000000e+000
    outer loop
      vertex   -2.695494e+000 4.355948e+001 -1.074527e-001
      vertex   -3.735619e+001 4.355948e+001 -1.074527e-001
      vertex   -3.715389e+001 4.470675e+001 -1.074527e-001
    endloop
  endfacet
  facet normal -8.007796e-019 -3.530331e-017 -1.000000e+000
    outer loop
      vertex   -2.695494e+000 4.355948e+001 -1.074527e-001
      vertex   -3.756330e+001 4.238487e+001 -1.074527e-001
      vertex   -3.735619e+001 4.355948e+001 -1.074527e-001
    endloop
  endfacet
  facet normal -1.186984e-018 -2.383897e-017 -1.000000e+000
    outer loop
      vertex   -2.695494e+000 4.355948e+001 -1.074527e-001
      vertex   -2.488375e+000 4.238487e+001 -1.074527e-001
      vertex   -3.756330e+001 4.238487e+001 -1.074527e-001
    endloop
  endfacet
  facet normal -1.186984e-018 3.481917e-017 -1.000000e+000
    outer loop
      vertex   -3.756330e+001 4.238487e+001 -1.074527e-001
      vertex   -2.488375e+000 4.238487e+001 -1.074527e-001
      vertex   -3.777542e+001 4.118194e+001 -1.074527e-001
    endloop
  endfacet
  facet normal -3.909329e-019 1.146769e-017 -1.000000e+000
    outer loop
      vertex   -3.777542e+001 4.118194e+001 -1.074527e-001
      vertex   -2.488375e+000 4.238487e+001 -1.074527e-001
      vertex   -2.276261e+000 4.118194e+001 -1.074527e-001
    endloop
  endfacet
  facet normal -3.909329e-019 1.119279e-017 -1.000000e+000
    outer loop
      vertex   -2.058970e+000 3.994964e+001 -1.074527e-001
      vertex   -3.777542e+001 4.118194e+001 -1.074527e-001
      vertex   -2.276261e+000 4.118194e+001 -1.074527e-001
    endloop
  endfacet
  facet normal 4.141957e-031 2.252345e-017 -1.000000e+000
    outer loop
      vertex   -2.058970e+000 3.994964e+001 -1.074527e-001
      vertex   -3.799271e+001 3.994964e+001 -1.074527e-001
      vertex   -3.777542e+001 4.118194e+001 -1.074527e-001
    endloop
  endfacet
  facet normal -2.021036e-031 -1.099014e-017 -1.000000e+000
    outer loop
      vertex   -2.058970e+000 3.994964e+001 -1.074527e-001
      vertex   -3.821537e+001 3.868689e+001 -1.074527e-001
      vertex   -3.799271e+001 3.994964e+001 -1.074527e-001
    endloop
  endfacet
  facet normal 3.814774e-019 -2.191301e-017 -1.000000e+000
    outer loop
      vertex   -2.058970e+000 3.994964e+001 -1.074527e-001
      vertex   -1.836310e+000 3.868689e+001 -1.074527e-001
      vertex   -3.821537e+001 3.868689e+001 -1.074527e-001
    endloop
  endfacet
  facet normal 3.814774e-019 -1.078914e-017 -1.000000e+000
    outer loop
      vertex   -3.821537e+001 3.868689e+001 -1.074527e-001
      vertex   -1.836310e+000 3.868689e+001 -1.074527e-001
      vertex   -3.844360e+001 3.739255e+001 -1.074527e-001
    endloop
  endfacet
  facet normal -7.535002e-019 2.131088e-017 -1.000000e+000
    outer loop
      vertex   -3.844360e+001 3.739255e+001 -1.074527e-001
      vertex   -1.836310e+000 3.868689e+001 -1.074527e-001
      vertex   -1.608078e+000 3.739255e+001 -1.074527e-001
    endloop
  endfacet
  facet normal -7.535002e-019 -3.150362e-017 -1.000000e+000
    outer loop
      vertex   -1.374063e+000 3.606541e+001 -1.074527e-001
      vertex   -3.844360e+001 3.739255e+001 -1.074527e-001
      vertex   -1.608078e+000 3.739255e+001 -1.074527e-001
    endloop
  endfacet
  facet normal 7.440465e-019 1.032572e-017 -1.000000e+000
    outer loop
      vertex   -1.374063e+000 3.606541e+001 -1.074527e-001
      vertex   -3.867762e+001 3.606541e+001 -1.074527e-001
      vertex   -3.844360e+001 3.739255e+001 -1.074527e-001
    endloop
  endfacet
  facet normal 7.440465e-019 1.006408e-017 -1.000000e+000
    outer loop
      vertex   -1.374063e+000 3.606541e+001 -1.074527e-001
      vertex   -3.891764e+001 3.470421e+001 -1.074527e-001
      vertex   -3.867762e+001 3.606541e+001 -1.074527e-001
    endloop
  endfacet
  facet normal 3.672967e-019 2.045532e-017 -1.000000e+000
    outer loop
      vertex   -1.374063e+000 3.606541e+001 -1.074527e-001
      vertex   -1.134044e+000 3.470421e+001 -1.074527e-001
      vertex   -3.891764e+001 3.470421e+001 -1.074527e-001
    endloop
  endfacet
  facet normal 3.672967e-019 -6.476535e-020 -1.000000e+000
    outer loop
      vertex   -3.891764e+001 3.470421e+001 -1.074527e-001
      vertex   -1.134044e+000 3.470421e+001 -1.074527e-001
      vertex   -3.916389e+001 3.330763e+001 -1.074527e-001
    endloop
  endfacet
  facet normal 1.087711e-018 -1.968211e-017 -1.000000e+000
    outer loop
      vertex   -3.916389e+001 3.330763e+001 -1.074527e-001
      vertex   -1.134044e+000 3.470421e+001 -1.074527e-001
      vertex   -8.877843e-001 3.330763e+001 -1.074527e-001
    endloop
  endfacet
  facet normal 1.087711e-018 2.923763e-017 -1.000000e+000
    outer loop
      vertex   -6.350389e-001 3.187426e+001 -1.074527e-001
      vertex   -3.916389e+001 3.330763e+001 -1.074527e-001
      vertex   -8.877843e-001 3.330763e+001 -1.074527e-001
    endloop
  endfacet
  facet normal -7.156893e-019 -1.923769e-017 -1.000000e+000
    outer loop
      vertex   -6.350389e-001 3.187426e+001 -1.074527e-001
      vertex   -3.941664e+001 3.187426e+001 -1.074527e-001
      vertex   -3.916389e+001 3.330763e+001 -1.074527e-001
    endloop
  endfacet
  facet normal -7.156893e-019 1.261972e-019 -1.000000e+000
    outer loop
      vertex   -6.350389e-001 3.187426e+001 -1.074527e-001
      vertex   -3.967613e+001 3.040264e+001 -1.074527e-001
      vertex   -3.941664e+001 3.187426e+001 -1.074527e-001
    endloop
  endfacet
  facet normal -1.059357e-018 9.243452e-018 -1.000000e+000
    outer loop
      vertex   -6.350389e-001 3.187426e+001 -1.074527e-001
      vertex   -3.755478e-001 3.040264e+001 -1.074527e-001
      vertex   -3.967613e+001 3.040264e+001 -1.074527e-001
    endloop
  endfacet
  facet normal -1.059357e-018 2.773240e-017 -1.000000e+000
    outer loop
      vertex   -3.967613e+001 3.040264e+001 -1.074527e-001
      vertex   -3.755478e-001 3.040264e+001 -1.074527e-001
      vertex   -3.994264e+001 2.889120e+001 -1.074527e-001
    endloop
  endfacet
  facet normal 1.393576e-018 -3.648174e-017 -1.000000e+000
    outer loop
      vertex   -3.994264e+001 2.889120e+001 -1.074527e-001
      vertex   -3.755478e-001 3.040264e+001 -1.074527e-001
      vertex   -1.090372e-001 2.889120e+001 -1.074527e-001
    endloop
  endfacet
  facet normal 1.393576e-018 1.811933e-017 -1.000000e+000
    outer loop
      vertex   1.647815e-001 2.733832e+001 -1.074527e-001
      vertex   -3.994264e+001 2.889120e+001 -1.074527e-001
      vertex   -1.090372e-001 2.889120e+001 -1.074527e-001
    endloop
  endfacet
  facet normal -6.873383e-019 -3.562601e-017 -1.000000e+000
    outer loop
      vertex   1.647815e-001 2.733832e+001 -1.074527e-001
      vertex   -4.021646e+001 2.733832e+001 -1.074527e-001
      vertex   -3.994264e+001 2.889120e+001 -1.074527e-001
    endloop
  endfacet
  facet normal -6.873383e-019 1.751130e-017 -1.000000e+000
    outer loop
      vertex   1.647815e-001 2.733832e+001 -1.074527e-001
      vertex   -4.049789e+001 2.574227e+001 -1.074527e-001
      vertex   -4.021646e+001 2.733832e+001 -1.074527e-001
    endloop
  endfacet
  facet normal 3.389447e-019 -8.635285e-018 -1.000000e+000
    outer loop
      vertex   1.647815e-001 2.733832e+001 -1.074527e-001
      vertex   4.462132e-001 2.574227e+001 -1.074527e-001
      vertex   -4.049789e+001 2.574227e+001 -1.074527e-001
    endloop
  endfacet
  facet normal 3.389447e-019 8.396848e-018 -1.000000e+000
    outer loop
      vertex   -4.049789e+001 2.574227e+001 -1.074527e-001
      vertex   4.462132e-001 2.574227e+001 -1.074527e-001
      vertex   -4.078726e+001 2.410121e+001 -1.074527e-001
    endloop
  endfacet
  facet normal 3.342206e-019 8.515547e-018 -1.000000e+000
    outer loop
      vertex   -4.078726e+001 2.410121e+001 -1.074527e-001
      vertex   4.462132e-001 2.574227e+001 -1.074527e-001
      vertex   7.355798e-001 2.410121e+001 -1.074527e-001
    endloop
  endfacet
  facet normal 3.342206e-019 5.893289e-020 -1.000000e+000
    outer loop
      vertex   1.033222e+000 2.241322e+001 -1.074527e-001
      vertex   -4.078726e+001 2.410121e+001 -1.074527e-001
      vertex   7.355798e-001 2.410121e+001 -1.074527e-001
    endloop
  endfacet
  facet normal -3.294968e-019 -1.638489e-017 -1.000000e+000
    outer loop
      vertex   1.033222e+000 2.241322e+001 -1.074527e-001
      vertex   -4.108490e+001 2.241322e+001 -1.074527e-001
      vertex   -4.078726e+001 2.410121e+001 -1.074527e-001
    endloop
  endfacet
  facet normal -3.294968e-019 1.603747e-017 -1.000000e+000
    outer loop
      vertex   1.033222e+000 2.241322e+001 -1.074527e-001
      vertex   -4.139118e+001 2.067626e+001 -1.074527e-001
      vertex   -4.108490e+001 2.241322e+001 -1.074527e-001
    endloop
  endfacet
  facet normal -6.861996e-031 7.989686e-018 -1.000000e+000
    outer loop
      vertex   1.033222e+000 2.241322e+001 -1.074527e-001
      vertex   1.339499e+000 2.067626e+001 -1.074527e-001
      vertex   -4.139118e+001 2.067626e+001 -1.074527e-001
    endloop
  endfacet
  facet normal 1.333151e-030 -1.552239e-017 -1.000000e+000
    outer loop
      vertex   -4.139118e+001 2.067626e+001 -1.074527e-001
      vertex   1.339499e+000 2.067626e+001 -1.074527e-001
      vertex   -4.170647e+001 1.888816e+001 -1.074527e-001
    endloop
  endfacet
  facet normal 2.127711e-030 -1.552239e-017 -1.000000e+000
    outer loop
      vertex   -4.170647e+001 1.888816e+001 -1.074527e-001
      vertex   1.339499e+000 2.067626e+001 -1.074527e-001
      vertex   1.654793e+000 1.888816e+001 -1.074527e-001
    endloop
  endfacet
  facet normal -2.065980e-030 1.507203e-017 -1.000000e+000
    outer loop
      vertex   1.979508e+000 1.704663e+001 -1.074527e-001
      vertex   -4.170647e+001 1.888816e+001 -1.074527e-001
      vertex   1.654793e+000 1.888816e+001 -1.074527e-001
    endloop
  endfacet
  facet normal -6.306552e-019 1.112029e-019 -1.000000e+000
    outer loop
      vertex   1.979508e+000 1.704663e+001 -1.074527e-001
      vertex   -4.203119e+001 1.704663e+001 -1.074527e-001
      vertex   -4.170647e+001 1.888816e+001 -1.074527e-001
    endloop
  endfacet
  facet normal -6.306552e-019 1.473951e-017 -1.000000e+000
    outer loop
      vertex   1.979508e+000 1.704663e+001 -1.074527e-001
      vertex   -4.236575e+001 1.514924e+001 -1.074527e-001
      vertex   -4.203119e+001 1.704663e+001 -1.074527e-001
    endloop
  endfacet
  facet normal 0.000000e+000 0.000000e+000 -1.000000e+000
    outer loop
      vertex   1.979508e+000 1.704663e+001 -1.074527e-001
      vertex   2.314073e+000 1.514924e+001 -1.074527e-001
      vertex   -4.236575e+001 1.514924e+001 -1.074527e-001
    endloop
  endfacet
  facet normal 0.000000e+000 0.000000e+000 -1.000000e+000
    outer loop
      vertex   -4.236575e+001 1.514924e+001 -1.074527e-001
      vertex   2.314073e+000 1.514924e+001 -1.074527e-001
      vertex   -4.271062e+001 1.319341e+001 -1.074527e-001
    endloop
  endfacet
  facet normal -3.058832e-019 7.041669e-018 -1.000000e+000
    outer loop
      vertex   -4.271062e+001 1.319341e+001 -1.074527e-001
      vertex   2.314073e+000 1.514924e+001 -1.074527e-001
      vertex   2.658942e+000 1.319341e+001 -1.074527e-001
    endloop
  endfacet
  facet normal -3.058832e-019 -1.381468e-017 -1.000000e+000
    outer loop
      vertex   3.014600e+000 1.117640e+001 -1.074527e-001
      vertex   -4.271062e+001 1.319341e+001 -1.074527e-001
      vertex   2.658942e+000 1.319341e+001 -1.074527e-001
    endloop
  endfacet
  facet normal -3.011615e-019 -1.370764e-017 -1.000000e+000
    outer loop
      vertex   3.014600e+000 1.117640e+001 -1.074527e-001
      vertex   -4.306628e+001 1.117640e+001 -1.074527e-001
      vertex   -4.271062e+001 1.319341e+001 -1.074527e-001
    endloop
  endfacet
  facet normal -3.011615e-019 6.721557e-018 -1.000000e+000
    outer loop
      vertex   3.014600e+000 1.117640e+001 -1.074527e-001
      vertex   -4.343324e+001 9.095290e+000 -1.074527e-001
      vertex   -4.306628e+001 1.117640e+001 -1.074527e-001
    endloop
  endfacet
  facet normal -2.964402e-019 6.616183e-018 -1.000000e+000
    outer loop
      vertex   3.014600e+000 1.117640e+001 -1.074527e-001
      vertex   3.381559e+000 9.095290e+000 -1.074527e-001
      vertex   -4.343324e+001 9.095290e+000 -1.074527e-001
    endloop
  endfacet
  facet normal -2.964402e-019 5.227095e-020 -1.000000e+000
    outer loop
      vertex   -4.343324e+001 9.095290e+000 -1.074527e-001
      vertex   3.381559e+000 9.095290e+000 -1.074527e-001
      vertex   -4.381205e+001 6.946976e+000 -1.074527e-001
    endloop
  endfacet
  facet normal 2.917192e-019 -1.286826e-017 -1.000000e+000
    outer loop
      vertex   -4.381205e+001 6.946976e+000 -1.074527e-001
      vertex   3.381559e+000 9.095290e+000 -1.074527e-001
      vertex   3.760369e+000 6.946976e+000 -1.074527e-001
    endloop
  endfacet
  facet normal 2.917192e-019 6.305999e-018 -1.000000e+000
    outer loop
      vertex   4.151612e+000 4.728149e+000 -1.074527e-001
      vertex   -4.381205e+001 6.946976e+000 -1.074527e-001
      vertex   3.760369e+000 6.946976e+000 -1.074527e-001
    endloop
  endfacet
  facet normal 0.000000e+000 0.000000e+000 -1.000000e+000
    outer loop
      vertex   4.151612e+000 4.728149e+000 -1.074527e-001
      vertex   -4.420329e+001 4.728149e+000 -1.074527e-001
      vertex   -4.381205e+001 6.946976e+000 -1.074527e-001
    endloop
  endfacet
  facet normal 0.000000e+000 0.000000e+000 -1.000000e+000
    outer loop
      vertex   4.151612e+000 4.728149e+000 -1.074527e-001
      vertex   -4.460759e+001 2.435280e+000 -1.074527e-001
      vertex   -4.420329e+001 4.728149e+000 -1.074527e-001
    endloop
  endfacet
  facet normal 0.000000e+000 0.000000e+000 -1.000000e+000
    outer loop
      vertex   4.151612e+000 4.728149e+000 -1.074527e-001
      vertex   4.555911e+000 2.435280e+000 -1.074527e-001
      vertex   -4.460759e+001 2.435280e+000 -1.074527e-001
    endloop
  endfacet
  facet normal -3.496925e-030 2.341570e-017 -1.000000e+000
    outer loop
      vertex   -4.460759e+001 2.435280e+000 -1.074527e-001
      vertex   4.555911e+000 2.435280e+000 -1.074527e-001
      vertex   4.973930e+000 6.459948e-002 -1.074527e-001
    endloop
  endfacet
  facet normal 0.000000e+000 2.341570e-017 -1.000000e+000
    outer loop
      vertex   -4.502561e+001 6.459948e-002 -1.074527e-001
      vertex   -4.460759e+001 2.435280e+000 -1.074527e-001
      vertex   4.973930e+000 6.459948e-002 -1.074527e-001
    endloop
  endfacet
  facet normal 9.844834e-001 1.735947e-001 2.563639e-002
    outer loop
      vertex   -3.477391e+000 4.799375e+001 -1.074527e-001
      vertex   -3.842545e+000 5.006460e+001 -1.074527e-001
      vertex   4.934575e+000 6.459948e-002 1.406318e+000
    endloop
  endfacet
  facet normal 9.844836e-001 1.735946e-001 2.562995e-002
    outer loop
      vertex   -3.288586e+000 4.692301e+001 -1.074527e-001
      vertex   4.934575e+000 6.459948e-002 1.406318e+000
      vertex   -3.095437e+000 4.582762e+001 -1.074527e-001
    endloop
  endfacet
  facet normal 9.844836e-001 1.735946e-001 2.563248e-002
    outer loop
      vertex   -3.288586e+000 4.692301e+001 -1.074527e-001
      vertex   -3.477391e+000 4.799375e+001 -1.074527e-001
      vertex   4.934575e+000 6.459948e-002 1.406318e+000
    endloop
  endfacet
  facet normal 9.792434e-001 1.738382e-001 1.042243e-001
    outer loop
      vertex   -4.008746e+000 5.006460e+001 2.315871e+000
      vertex   4.803643e+000 6.459948e-002 2.914929e+000
      vertex   -3.880116e+000 5.006460e+001 1.107332e+000
    endloop
  endfacet
  facet normal 9.742023e-001 1.734311e-001 1.444008e-001
    outer loop
      vertex   -4.008746e+000 5.006460e+001 2.315871e+000
      vertex   4.581614e+000 6.459948e-002 4.412846e+000
      vertex   4.803643e+000 6.459948e-002 2.914929e+000
    endloop
  endfacet
  facet normal 9.686562e-001 1.738629e-001 1.774174e-001
    outer loop
      vertex   -4.008746e+000 5.006460e+001 2.315871e+000
      vertex   -4.227707e+000 5.006460e+001 3.511350e+000
      vertex   4.581614e+000 6.459948e-002 4.412846e+000
    endloop
  endfacet
  facet normal 9.636697e-001 1.734477e-001 2.031170e-001
    outer loop
      vertex   4.581614e+000 6.459948e-002 4.412846e+000
      vertex   -4.227707e+000 5.006460e+001 3.511350e+000
      vertex   4.269304e+000 6.459948e-002 5.894572e+000
    endloop
  endfacet
  facet normal 9.526233e-001 1.737867e-001 2.496136e-001
    outer loop
      vertex   4.269304e+000 6.459948e-002 5.894572e+000
      vertex   -4.227707e+000 5.006460e+001 3.511350e+000
      vertex   -4.535767e+000 5.006460e+001 4.687025e+000
    endloop
  endfacet
  facet normal 9.320267e-001 1.736192e-001 3.180920e-001
    outer loop
      vertex   3.867858e+000 6.459948e-002 7.354672e+000
      vertex   -4.535767e+000 5.006460e+001 4.687025e+000
      vertex   3.378749e+000 6.459948e-002 8.787789e+000
    endloop
  endfacet
  facet normal 9.495906e-001 1.735297e-001 2.610845e-001
    outer loop
      vertex   3.867858e+000 6.459948e-002 7.354672e+000
      vertex   4.269304e+000 6.459948e-002 5.894572e+000
      vertex   -4.535767e+000 5.006460e+001 4.687025e+000
    endloop
  endfacet
  facet normal 9.312222e-001 1.736816e-001 3.204058e-001
    outer loop
      vertex   -4.535767e+000 5.006460e+001 4.687025e+000
      vertex   -4.931186e+000 5.006460e+001 5.836266e+000
      vertex   3.378749e+000 6.459948e-002 8.787789e+000
    endloop
  endfacet
  facet normal 9.110790e-001 1.734943e-001 3.739450e-001
    outer loop
      vertex   3.378749e+000 6.459948e-002 8.787789e+000
      vertex   -4.931186e+000 5.006460e+001 5.836266e+000
      vertex   2.803771e+000 6.459948e-002 1.018866e+001
    endloop
  endfacet
  facet normal 9.045282e-001 1.738242e-001 3.893762e-001
    outer loop
      vertex   2.803771e+000 6.459948e-002 1.018866e+001
      vertex   -4.931186e+000 5.006460e+001 5.836266e+000
      vertex   -5.411736e+000 5.006460e+001 6.952593e+000
    endloop
  endfacet
  facet normal 8.727502e-001 1.738658e-001 4.561555e-001
    outer loop
      vertex   2.145034e+000 6.459948e-002 1.155216e+001
      vertex   -5.411736e+000 5.006460e+001 6.952593e+000
      vertex   -5.974706e+000 5.006460e+001 8.029708e+000
    endloop
  endfacet
  facet normal 8.360656e-001 1.738066e-001 5.203706e-001
    outer loop
      vertex   1.404955e+000 6.459948e-002 1.287327e+001
      vertex   -5.974706e+000 5.006460e+001 8.029708e+000
      vertex   -6.616921e+000 5.006460e+001 9.061538e+000
    endloop
  endfacet
  facet normal 7.947077e-001 1.736466e-001 5.816241e-001
    outer loop
      vertex   5.862484e-001 6.459948e-002 1.414715e+001
      vertex   -6.616921e+000 5.006460e+001 9.061538e+000
      vertex   -3.080813e-001 6.459948e-002 1.536913e+001
    endloop
  endfacet
  facet normal 8.284834e-001 1.735114e-001 5.324556e-001
    outer loop
      vertex   5.862484e-001 6.459948e-002 1.414715e+001
      vertex   1.404955e+000 6.459948e-002 1.287327e+001
      vertex   -6.616921e+000 5.006460e+001 9.061538e+000
    endloop
  endfacet
  facet normal 8.867772e-001 1.734347e-001 4.284235e-001
    outer loop
      vertex   2.803771e+000 6.459948e-002 1.018866e+001
      vertex   -5.411736e+000 5.006460e+001 6.952593e+000
      vertex   2.145034e+000 6.459948e-002 1.155216e+001
    endloop
  endfacet
  facet normal 8.592113e-001 1.734404e-001 4.813257e-001
    outer loop
      vertex   2.145034e+000 6.459948e-002 1.155216e+001
      vertex   -5.974706e+000 5.006460e+001 8.029708e+000
      vertex   1.404955e+000 6.459948e-002 1.287327e+001
    endloop
  endfacet
  facet normal 7.946792e-001 1.736478e-001 5.816626e-001
    outer loop
      vertex   -6.616921e+000 5.006460e+001 9.061538e+000
      vertex   -7.334759e+000 5.006460e+001 1.004226e+001
      vertex   -3.080813e-001 6.459948e-002 1.536913e+001
    endloop
  endfacet
  facet normal 7.580547e-001 1.735107e-001 6.286868e-001
    outer loop
      vertex   -3.080813e-001 6.459948e-002 1.536913e+001
      vertex   -7.334759e+000 5.006460e+001 1.004226e+001
      vertex   -1.274753e+000 6.459948e-002 1.653471e+001
    endloop
  endfacet
  facet normal 7.487658e-001 1.738073e-001 6.396411e-001
    outer loop
      vertex   -1.274753e+000 6.459948e-002 1.653471e+001
      vertex   -7.334759e+000 5.006460e+001 1.004226e+001
      vertex   -8.124172e+000 5.006460e+001 1.096635e+001
    endloop
  endfacet
  facet normal 6.986450e-001 1.738659e-001 6.940215e-001
    outer loop
      vertex   -2.310220e+000 6.459948e-002 1.763964e+001
      vertex   -8.124172e+000 5.006460e+001 1.096635e+001
      vertex   -8.980707e+000 5.006460e+001 1.182859e+001
    endloop
  endfacet
  facet normal 6.445966e-001 1.738235e-001 7.445002e-001
    outer loop
      vertex   -3.410684e+000 6.459948e-002 1.867985e+001
      vertex   -8.980707e+000 5.006460e+001 1.182859e+001
      vertex   -9.899535e+000 5.006460e+001 1.262412e+001
    endloop
  endfacet
  facet normal 5.869227e-001 1.736803e-001 7.907951e-001
    outer loop
      vertex   -4.572107e+000 6.459948e-002 1.965152e+001
      vertex   -9.899535e+000 5.006460e+001 1.262412e+001
      vertex   -1.087547e+001 5.006460e+001 1.334846e+001
    endloop
  endfacet
  facet normal 5.360099e-001 1.735289e-001 8.261846e-001
    outer loop
      vertex   -5.790228e+000 6.459948e-002 2.055109e+001
      vertex   -1.087547e+001 5.006460e+001 1.334846e+001
      vertex   -7.060577e+000 6.459948e-002 2.137527e+001
    endloop
  endfacet
  facet normal 5.850372e-001 1.736203e-001 7.922042e-001
    outer loop
      vertex   -5.790228e+000 6.459948e-002 2.055109e+001
      vertex   -4.572107e+000 6.459948e-002 1.965152e+001
      vertex   -1.087547e+001 5.006460e+001 1.334846e+001
    endloop
  endfacet
  facet normal 7.186103e-001 1.734401e-001 6.734373e-001
    outer loop
      vertex   -1.274753e+000 6.459948e-002 1.653471e+001
      vertex   -8.124172e+000 5.006460e+001 1.096635e+001
      vertex   -2.310220e+000 6.459948e-002 1.763964e+001
    endloop
  endfacet
  facet normal 6.765204e-001 1.734348e-001 7.157098e-001
    outer loop
      vertex   -2.310220e+000 6.459948e-002 1.763964e+001
      vertex   -8.980707e+000 5.006460e+001 1.182859e+001
      vertex   -3.410684e+000 6.459948e-002 1.867985e+001
    endloop
  endfacet
  facet normal 6.319410e-001 1.734949e-001 7.553477e-001
    outer loop
      vertex   -3.410684e+000 6.459948e-002 1.867985e+001
      vertex   -9.899535e+000 5.006460e+001 1.262412e+001
      vertex   -4.572107e+000 6.459948e-002 1.965152e+001
    endloop
  endfacet
  facet normal 5.259120e-001 1.737876e-001 8.325950e-001
    outer loop
      vertex   -1.087547e+001 5.006460e+001 1.334846e+001
      vertex   -1.190301e+001 5.006460e+001 1.399751e+001
      vertex   -7.060577e+000 6.459948e-002 2.137527e+001
    endloop
  endfacet
  facet normal 4.850136e-001 1.734474e-001 8.571335e-001
    outer loop
      vertex   -7.060577e+000 6.459948e-002 2.137527e+001
      vertex   -1.190301e+001 5.006460e+001 1.399751e+001
      vertex   -8.378495e+000 6.459948e-002 2.212102e+001
    endloop
  endfacet
  facet normal 4.619404e-001 1.738631e-001 8.697027e-001
    outer loop
      vertex   -8.378495e+000 6.459948e-002 2.212102e+001
      vertex   -1.190301e+001 5.006460e+001 1.399751e+001
      vertex   -1.297637e+001 5.006460e+001 1.456762e+001
    endloop
  endfacet
  facet normal 3.953724e-001 1.738377e-001 9.019208e-001
    outer loop
      vertex   -9.739145e+000 6.459948e-002 2.278561e+001
      vertex   -1.297637e+001 5.006460e+001 1.456762e+001
      vertex   -1.408948e+001 5.006460e+001 1.505557e+001
    endloop
  endfacet
  facet normal 3.265799e-001 1.737114e-001 9.290694e-001
    outer loop
      vertex   -1.113754e+001 6.459948e-002 2.336660e+001
      vertex   -1.408948e+001 5.006460e+001 1.505557e+001
      vertex   -1.523607e+001 5.006460e+001 1.545861e+001
    endloop
  endfacet
  facet normal 2.651626e-001 1.735490e-001 9.484564e-001
    outer loop
      vertex   -1.256854e+001 6.459948e-002 2.386187e+001
      vertex   -1.523607e+001 5.006460e+001 1.545861e+001
      vertex   -1.402690e+001 6.459948e-002 2.426958e+001
    endloop
  endfacet
  facet normal 3.220964e-001 1.735947e-001 9.306550e-001
    outer loop
      vertex   -1.256854e+001 6.459948e-002 2.386187e+001
      vertex   -1.113754e+001 6.459948e-002 2.336660e+001
      vertex   -1.523607e+001 5.006460e+001 1.545861e+001
    endloop
  endfacet
  facet normal 4.322313e-001 1.734312e-001 8.849281e-001
    outer loop
      vertex   -8.378495e+000 6.459948e-002 2.212102e+001
      vertex   -1.297637e+001 5.006460e+001 1.456762e+001
      vertex   -9.739145e+000 6.459948e-002 2.278561e+001
    endloop
  endfacet
  facet normal 3.778584e-001 1.734803e-001 9.094656e-001
    outer loop
      vertex   -9.739145e+000 6.459948e-002 2.278561e+001
      vertex   -1.408948e+001 5.006460e+001 1.505557e+001
      vertex   -1.113754e+001 6.459948e-002 2.336660e+001
    endloop
  endfacet
  facet normal 2.559341e-001 1.737650e-001 9.509487e-001
    outer loop
      vertex   -1.523607e+001 5.006460e+001 1.545861e+001
      vertex   -1.640967e+001 5.006460e+001 1.577447e+001
      vertex   -1.402690e+001 6.459948e-002 2.426958e+001
    endloop
  endfacet
  facet normal 2.072567e-001 1.734565e-001 9.627863e-001
    outer loop
      vertex   -1.402690e+001 6.459948e-002 2.426958e+001
      vertex   -1.640967e+001 5.006460e+001 1.577447e+001
      vertex   -1.550727e+001 6.459948e-002 2.458826e+001
    endloop
  endfacet
  facet normal 1.838451e-001 1.738574e-001 9.674578e-001
    outer loop
      vertex   -1.550727e+001 6.459948e-002 2.458826e+001
      vertex   -1.640967e+001 5.006460e+001 1.577447e+001
      vertex   -1.760367e+001 5.006460e+001 1.600136e+001
    endloop
  endfacet
  facet normal 1.107236e-001 1.738490e-001 9.785279e-001
    outer loop
      vertex   -1.700422e+001 6.459948e-002 2.481672e+001
      vertex   -1.760367e+001 5.006460e+001 1.600136e+001
      vertex   -1.881133e+001 5.006460e+001 1.613802e+001
    endloop
  endfacet
  facet normal 3.697811e-002 1.737396e-001 9.840971e-001
    outer loop
      vertex   -1.851225e+001 6.459948e-002 2.495414e+001
      vertex   -1.881133e+001 5.006460e+001 1.613802e+001
      vertex   -2.002584e+001 5.006460e+001 1.618365e+001
    endloop
  endfacet
  facet normal -2.982595e-002 1.735709e-001 9.843696e-001
    outer loop
      vertex   -2.002584e+001 6.459948e-002 2.500000e+001
      vertex   -2.002584e+001 5.006460e+001 1.618365e+001
      vertex   -2.153943e+001 6.459948e-002 2.495414e+001
    endloop
  endfacet
  facet normal 2.982595e-002 1.735709e-001 9.843696e-001
    outer loop
      vertex   -2.002584e+001 6.459948e-002 2.500000e+001
      vertex   -1.851225e+001 6.459948e-002 2.495414e+001
      vertex   -2.002584e+001 5.006460e+001 1.618365e+001
    endloop
  endfacet
  facet normal 1.485868e-001 1.734293e-001 9.735729e-001
    outer loop
      vertex   -1.550727e+001 6.459948e-002 2.458826e+001
      vertex   -1.760367e+001 5.006460e+001 1.600136e+001
      vertex   -1.700422e+001 6.459948e-002 2.481672e+001
    endloop
  endfacet
  facet normal 8.937008e-002 1.734675e-001 9.807762e-001
    outer loop
      vertex   -1.700422e+001 6.459948e-002 2.481672e+001
      vertex   -1.881133e+001 5.006460e+001 1.613802e+001
      vertex   -1.851225e+001 6.459948e-002 2.495414e+001
    endloop
  endfacet
  facet normal -3.697811e-002 1.737396e-001 9.840971e-001
    outer loop
      vertex   -2.002584e+001 5.006460e+001 1.618365e+001
      vertex   -2.124035e+001 5.006460e+001 1.613802e+001
      vertex   -2.153943e+001 6.459948e-002 2.495414e+001
    endloop
  endfacet
  facet normal -8.937008e-002 1.734675e-001 9.807762e-001
    outer loop
      vertex   -2.153943e+001 6.459948e-002 2.495414e+001
      vertex   -2.124035e+001 5.006460e+001 1.613802e+001
      vertex   -2.304746e+001 6.459948e-002 2.481672e+001
    endloop
  endfacet
  facet normal -1.107236e-001 1.738490e-001 9.785279e-001
    outer loop
      vertex   -2.304746e+001 6.459948e-002 2.481672e+001
      vertex   -2.124035e+001 5.006460e+001 1.613802e+001
      vertex   -2.244801e+001 5.006460e+001 1.600136e+001
    endloop
  endfacet
  facet normal -1.838451e-001 1.738574e-001 9.674578e-001
    outer loop
      vertex   -2.454441e+001 6.459948e-002 2.458826e+001
      vertex   -2.244801e+001 5.006460e+001 1.600136e+001
      vertex   -2.364200e+001 5.006460e+001 1.577447e+001
    endloop
  endfacet
  facet normal -2.559341e-001 1.737650e-001 9.509487e-001
    outer loop
      vertex   -2.602478e+001 6.459948e-002 2.426958e+001
      vertex   -2.364200e+001 5.006460e+001 1.577447e+001
      vertex   -2.481561e+001 5.006460e+001 1.545861e+001
    endloop
  endfacet
  facet normal -3.220964e-001 1.735947e-001 9.306550e-001
    outer loop
      vertex   -2.748314e+001 6.459948e-002 2.386187e+001
      vertex   -2.481561e+001 5.006460e+001 1.545861e+001
      vertex   -2.891414e+001 6.459948e-002 2.336660e+001
    endloop
  endfacet
  facet normal -2.651626e-001 1.735490e-001 9.484564e-001
    outer loop
      vertex   -2.748314e+001 6.459948e-002 2.386187e+001
      vertex   -2.602478e+001 6.459948e-002 2.426958e+001
      vertex   -2.481561e+001 5.006460e+001 1.545861e+001
    endloop
  endfacet
  facet normal -1.485868e-001 1.734293e-001 9.735729e-001
    outer loop
      vertex   -2.304746e+001 6.459948e-002 2.481672e+001
      vertex   -2.244801e+001 5.006460e+001 1.600136e+001
      vertex   -2.454441e+001 6.459948e-002 2.458826e+001
    endloop
  endfacet
  facet normal -2.072567e-001 1.734565e-001 9.627863e-001
    outer loop
      vertex   -2.454441e+001 6.459948e-002 2.458826e+001
      vertex   -2.364200e+001 5.006460e+001 1.577447e+001
      vertex   -2.602478e+001 6.459948e-002 2.426958e+001
    endloop
  endfacet
  facet normal -3.265799e-001 1.737114e-001 9.290694e-001
    outer loop
      vertex   -2.481561e+001 5.006460e+001 1.545861e+001
      vertex   -2.596220e+001 5.006460e+001 1.505557e+001
      vertex   -2.891414e+001 6.459948e-002 2.336660e+001
    endloop
  endfacet
  facet normal -3.778584e-001 1.734803e-001 9.094656e-001
    outer loop
      vertex   -2.891414e+001 6.459948e-002 2.336660e+001
      vertex   -2.596220e+001 5.006460e+001 1.505557e+001
      vertex   -3.031253e+001 6.459948e-002 2.278561e+001
    endloop
  endfacet
  facet normal -3.953724e-001 1.738377e-001 9.019208e-001
    outer loop
      vertex   -3.031253e+001 6.459948e-002 2.278561e+001
      vertex   -2.596220e+001 5.006460e+001 1.505557e+001
      vertex   -2.707531e+001 5.006460e+001 1.456762e+001
    endloop
  endfacet
  facet normal -4.619404e-001 1.738631e-001 8.697027e-001
    outer loop
      vertex   -3.167318e+001 6.459948e-002 2.212102e+001
      vertex   -2.707531e+001 5.006460e+001 1.456762e+001
      vertex   -2.814866e+001 5.006460e+001 1.399751e+001
    endloop
  endfacet
  facet normal -5.259120e-001 1.737876e-001 8.325950e-001
    outer loop
      vertex   -3.299110e+001 6.459948e-002 2.137527e+001
      vertex   -2.814866e+001 5.006460e+001 1.399751e+001
      vertex   -2.917621e+001 5.006460e+001 1.334846e+001
    endloop
  endfacet
  facet normal -5.850372e-001 1.736203e-001 7.922042e-001
    outer loop
      vertex   -3.426145e+001 6.459948e-002 2.055109e+001
      vertex   -2.917621e+001 5.006460e+001 1.334846e+001
      vertex   -3.547957e+001 6.459948e-002 1.965152e+001
    endloop
  endfacet
  facet normal -5.360099e-001 1.735289e-001 8.261846e-001
    outer loop
      vertex   -3.426145e+001 6.459948e-002 2.055109e+001
      vertex   -3.299110e+001 6.459948e-002 2.137527e+001
      vertex   -2.917621e+001 5.006460e+001 1.334846e+001
    endloop
  endfacet
  facet normal -4.322313e-001 1.734312e-001 8.849281e-001
    outer loop
      vertex   -3.031253e+001 6.459948e-002 2.278561e+001
      vertex   -2.707531e+001 5.006460e+001 1.456762e+001
      vertex   -3.167318e+001 6.459948e-002 2.212102e+001
    endloop
  endfacet
  facet normal -4.850136e-001 1.734474e-001 8.571335e-001
    outer loop
      vertex   -3.167318e+001 6.459948e-002 2.212102e+001
      vertex   -2.814866e+001 5.006460e+001 1.399751e+001
      vertex   -3.299110e+001 6.459948e-002 2.137527e+001
    endloop
  endfacet
  facet normal -5.869227e-001 1.736803e-001 7.907951e-001
    outer loop
      vertex   -2.917621e+001 5.006460e+001 1.334846e+001
      vertex   -3.015214e+001 5.006460e+001 1.262412e+001
      vertex   -3.547957e+001 6.459948e-002 1.965152e+001
    endloop
  endfacet
  facet normal -6.319410e-001 1.734949e-001 7.553477e-001
    outer loop
      vertex   -3.547957e+001 6.459948e-002 1.965152e+001
      vertex   -3.015214e+001 5.006460e+001 1.262412e+001
      vertex   -3.664099e+001 6.459948e-002 1.867985e+001
    endloop
  endfacet
  facet normal -6.445966e-001 1.738235e-001 7.445002e-001
    outer loop
      vertex   -3.664099e+001 6.459948e-002 1.867985e+001
      vertex   -3.015214e+001 5.006460e+001 1.262412e+001
      vertex   -3.107097e+001 5.006460e+001 1.182859e+001
    endloop
  endfacet
  facet normal -6.986450e-001 1.738659e-001 6.940215e-001
    outer loop
      vertex   -3.774146e+001 6.459948e-002 1.763964e+001
      vertex   -3.107097e+001 5.006460e+001 1.182859e+001
      vertex   -3.192751e+001 5.006460e+001 1.096635e+001
    endloop
  endfacet
  facet normal -7.487658e-001 1.738073e-001 6.396411e-001
    outer loop
      vertex   -3.877693e+001 6.459948e-002 1.653471e+001
      vertex   -3.192751e+001 5.006460e+001 1.096635e+001
      vertex   -3.271692e+001 5.006460e+001 1.004226e+001
    endloop
  endfacet
  facet normal -7.946792e-001 1.736478e-001 5.816626e-001
    outer loop
      vertex   -3.974360e+001 6.459948e-002 1.536913e+001
      vertex   -3.271692e+001 5.006460e+001 1.004226e+001
      vertex   -3.343476e+001 5.006460e+001 9.061538e+000
    endloop
  endfacet
  facet normal -8.284834e-001 1.735114e-001 5.324556e-001
    outer loop
      vertex   -4.063793e+001 6.459948e-002 1.414715e+001
      vertex   -3.343476e+001 5.006460e+001 9.061538e+000
      vertex   -4.145663e+001 6.459948e-002 1.287327e+001
    endloop
  endfacet
  facet normal -7.947077e-001 1.736466e-001 5.816241e-001
    outer loop
      vertex   -4.063793e+001 6.459948e-002 1.414715e+001
      vertex   -3.974360e+001 6.459948e-002 1.536913e+001
      vertex   -3.343476e+001 5.006460e+001 9.061538e+000
    endloop
  endfacet
  facet normal -6.765204e-001 1.734348e-001 7.157098e-001
    outer loop
      vertex   -3.664099e+001 6.459948e-002 1.867985e+001
      vertex   -3.107097e+001 5.006460e+001 1.182859e+001
      vertex   -3.774146e+001 6.459948e-002 1.763964e+001
    endloop
  endfacet
  facet normal -7.186103e-001 1.734401e-001 6.734373e-001
    outer loop
      vertex   -3.774146e+001 6.459948e-002 1.763964e+001
      vertex   -3.192751e+001 5.006460e+001 1.096635e+001
      vertex   -3.877693e+001 6.459948e-002 1.653471e+001
    endloop
  endfacet
  facet normal -7.580547e-001 1.735107e-001 6.286868e-001
    outer loop
      vertex   -3.877693e+001 6.459948e-002 1.653471e+001
      vertex   -3.271692e+001 5.006460e+001 1.004226e+001
      vertex   -3.974360e+001 6.459948e-002 1.536913e+001
    endloop
  endfacet
  facet normal -8.360656e-001 1.738066e-001 5.203706e-001
    outer loop
      vertex   -3.343476e+001 5.006460e+001 9.061538e+000
      vertex   -3.407697e+001 5.006460e+001 8.029708e+000
      vertex   -4.145663e+001 6.459948e-002 1.287327e+001
    endloop
  endfacet
  facet normal -8.592113e-001 1.734404e-001 4.813257e-001
    outer loop
      vertex   -4.145663e+001 6.459948e-002 1.287327e+001
      vertex   -3.407697e+001 5.006460e+001 8.029708e+000
      vertex   -4.219671e+001 6.459948e-002 1.155216e+001
    endloop
  endfacet
  facet normal -8.727502e-001 1.738658e-001 4.561555e-001
    outer loop
      vertex   -4.219671e+001 6.459948e-002 1.155216e+001
      vertex   -3.407697e+001 5.006460e+001 8.029708e+000
      vertex   -3.463994e+001 5.006460e+001 6.952593e+000
    endloop
  endfacet
  facet normal -9.045282e-001 1.738242e-001 3.893762e-001
    outer loop
      vertex   -4.285545e+001 6.459948e-002 1.018866e+001
      vertex   -3.463994e+001 5.006460e+001 6.952593e+000
      vertex   -3.512049e+001 5.006460e+001 5.836266e+000
    endloop
  endfacet
  facet normal -9.312222e-001 1.736816e-001 3.204058e-001
    outer loop
      vertex   -4.343043e+001 6.459948e-002 8.787789e+000
      vertex   -3.512049e+001 5.006460e+001 5.836266e+000
      vertex   -3.551591e+001 5.006460e+001 4.687025e+000
    endloop
  endfacet
  facet normal -9.495906e-001 1.735297e-001 2.610845e-001
    outer loop
      vertex   -4.391954e+001 6.459948e-002 7.354672e+000
      vertex   -3.551591e+001 5.006460e+001 4.687025e+000
      vertex   -4.432098e+001 6.459948e-002 5.894572e+000
    endloop
  endfacet
  facet normal -9.320267e-001 1.736192e-001 3.180920e-001
    outer loop
      vertex   -4.391954e+001 6.459948e-002 7.354672e+000
      vertex   -4.343043e+001 6.459948e-002 8.787789e+000
      vertex   -3.551591e+001 5.006460e+001 4.687025e+000
    endloop
  endfacet
  facet normal -8.867772e-001 1.734347e-001 4.284235e-001
    outer loop
      vertex   -4.219671e+001 6.459948e-002 1.155216e+001
      vertex   -3.463994e+001 5.006460e+001 6.952593e+000
      vertex   -4.285545e+001 6.459948e-002 1.018866e+001
    endloop
  endfacet
  facet normal -9.110790e-001 1.734943e-001 3.739450e-001
    outer loop
      vertex   -4.285545e+001 6.459948e-002 1.018866e+001
      vertex   -3.512049e+001 5.006460e+001 5.836266e+000
      vertex   -4.343043e+001 6.459948e-002 8.787789e+000
    endloop
  endfacet
  facet normal -9.526233e-001 1.737867e-001 2.496136e-001
    outer loop
      vertex   -3.551591e+001 5.006460e+001 4.687025e+000
      vertex   -3.582397e+001 5.006460e+001 3.511350e+000
      vertex   -4.432098e+001 6.459948e-002 5.894572e+000
    endloop
  endfacet
  facet normal -9.636697e-001 1.734477e-001 2.031170e-001
    outer loop
      vertex   -4.432098e+001 6.459948e-002 5.894572e+000
      vertex   -3.582397e+001 5.006460e+001 3.511350e+000
      vertex   -4.463329e+001 6.459948e-002 4.412846e+000
    endloop
  endfacet
  facet normal -9.686562e-001 1.738629e-001 1.774174e-001
    outer loop
      vertex   -4.463329e+001 6.459948e-002 4.412846e+000
      vertex   -3.582397e+001 5.006460e+001 3.511350e+000
      vertex   -3.604293e+001 5.006460e+001 2.315871e+000
    endloop
  endfacet
  facet normal -9.792434e-001 1.738382e-001 1.042243e-001
    outer loop
      vertex   -4.485532e+001 6.459948e-002 2.914929e+000
      vertex   -3.604293e+001 5.006460e+001 2.315871e+000
      vertex   -3.617156e+001 5.006460e+001 1.107332e+000
    endloop
  endfacet
  facet normal -9.843257e-001 1.737126e-001 3.044344e-002
    outer loop
      vertex   -4.498625e+001 6.459948e-002 1.406318e+000
      vertex   -3.617156e+001 5.006460e+001 1.107332e+000
      vertex   -3.620913e+001 5.006460e+001 -1.074527e-001
    endloop
  endfacet
  facet normal -9.844834e-001 1.735947e-001 2.563639e-002
    outer loop
      vertex   -3.657429e+001 4.799375e+001 -1.074527e-001
      vertex   -4.498625e+001 6.459948e-002 1.406318e+000
      vertex   -3.620913e+001 5.006460e+001 -1.074527e-001
    endloop
  endfacet
  facet normal -9.844836e-001 1.735946e-001 2.563248e-002
    outer loop
      vertex   -3.657429e+001 4.799375e+001 -1.074527e-001
      vertex   -3.676309e+001 4.692301e+001 -1.074527e-001
      vertex   -4.498625e+001 6.459948e-002 1.406318e+000
    endloop
  endfacet
  facet normal -9.844836e-001 1.735946e-001 2.562995e-002
    outer loop
      vertex   -4.498625e+001 6.459948e-002 1.406318e+000
      vertex   -3.676309e+001 4.692301e+001 -1.074527e-001
      vertex   -3.695624e+001 4.582762e+001 -1.074527e-001
    endloop
  endfacet
  facet normal -9.844837e-001 1.735945e-001 2.562751e-002
    outer loop
      vertex   -3.715389e+001 4.470675e+001 -1.074527e-001
      vertex   -4.498625e+001 6.459948e-002 1.406318e+000
      vertex   -3.695624e+001 4.582762e+001 -1.074527e-001
    endloop
  endfacet
  facet normal -9.844838e-001 1.735944e-001 2.562516e-002
    outer loop
      vertex   -3.715389e+001 4.470675e+001 -1.074527e-001
      vertex   -3.735619e+001 4.355948e+001 -1.074527e-001
      vertex   -4.498625e+001 6.459948e-002 1.406318e+000
    endloop
  endfacet
  facet normal -9.844839e-001 1.735944e-001 2.562290e-002
    outer loop
      vertex   -4.498625e+001 6.459948e-002 1.406318e+000
      vertex   -3.735619e+001 4.355948e+001 -1.074527e-001
      vertex   -3.756330e+001 4.238487e+001 -1.074527e-001
    endloop
  endfacet
  facet normal -9.844839e-001 1.735943e-001 2.562073e-002
    outer loop
      vertex   -3.777542e+001 4.118194e+001 -1.074527e-001
      vertex   -4.498625e+001 6.459948e-002 1.406318e+000
      vertex   -3.756330e+001 4.238487e+001 -1.074527e-001
    endloop
  endfacet
  facet normal -9.844840e-001 1.735942e-001 2.561864e-002
    outer loop
      vertex   -3.777542e+001 4.118194e+001 -1.074527e-001
      vertex   -3.799271e+001 3.994964e+001 -1.074527e-001
      vertex   -4.498625e+001 6.459948e-002 1.406318e+000
    endloop
  endfacet
  facet normal -9.844841e-001 1.735942e-001 2.561664e-002
    outer loop
      vertex   -4.498625e+001 6.459948e-002 1.406318e+000
      vertex   -3.799271e+001 3.994964e+001 -1.074527e-001
      vertex   -3.821537e+001 3.868689e+001 -1.074527e-001
    endloop
  endfacet
  facet normal -9.844841e-001 1.735941e-001 2.561472e-002
    outer loop
      vertex   -3.844360e+001 3.739255e+001 -1.074527e-001
      vertex   -4.498625e+001 6.459948e-002 1.406318e+000
      vertex   -3.821537e+001 3.868689e+001 -1.074527e-001
    endloop
  endfacet
  facet normal -9.844842e-001 1.735940e-001 2.561290e-002
    outer loop
      vertex   -3.844360e+001 3.739255e+001 -1.074527e-001
      vertex   -3.867762e+001 3.606541e+001 -1.074527e-001
      vertex   -4.498625e+001 6.459948e-002 1.406318e+000
    endloop
  endfacet
  facet normal -9.844842e-001 1.735940e-001 2.561116e-002
    outer loop
      vertex   -4.498625e+001 6.459948e-002 1.406318e+000
      vertex   -3.867762e+001 3.606541e+001 -1.074527e-001
      vertex   -3.891764e+001 3.470421e+001 -1.074527e-001
    endloop
  endfacet
  facet normal -9.844843e-001 1.735939e-001 2.560950e-002
    outer loop
      vertex   -3.916389e+001 3.330763e+001 -1.074527e-001
      vertex   -4.498625e+001 6.459948e-002 1.406318e+000
      vertex   -3.891764e+001 3.470421e+001 -1.074527e-001
    endloop
  endfacet
  facet normal -9.844843e-001 1.735939e-001 2.560794e-002
    outer loop
      vertex   -3.916389e+001 3.330763e+001 -1.074527e-001
      vertex   -3.941664e+001 3.187426e+001 -1.074527e-001
      vertex   -4.498625e+001 6.459948e-002 1.406318e+000
    endloop
  endfacet
  facet normal -9.844844e-001 1.735938e-001 2.560646e-002
    outer loop
      vertex   -4.498625e+001 6.459948e-002 1.406318e+000
      vertex   -3.941664e+001 3.187426e+001 -1.074527e-001
      vertex   -3.967613e+001 3.040264e+001 -1.074527e-001
    endloop
  endfacet
  facet normal -9.844844e-001 1.735937e-001 2.560507e-002
    outer loop
      vertex   -3.994264e+001 2.889120e+001 -1.074527e-001
      vertex   -4.498625e+001 6.459948e-002 1.406318e+000
      vertex   -3.967613e+001 3.040264e+001 -1.074527e-001
    endloop
  endfacet
  facet normal -9.844845e-001 1.735937e-001 2.560377e-002
    outer loop
      vertex   -3.994264e+001 2.889120e+001 -1.074527e-001
      vertex   -4.021646e+001 2.733832e+001 -1.074527e-001
      vertex   -4.498625e+001 6.459948e-002 1.406318e+000
    endloop
  endfacet
  facet normal -9.844845e-001 1.735936e-001 2.560255e-002
    outer loop
      vertex   -4.498625e+001 6.459948e-002 1.406318e+000
      vertex   -4.021646e+001 2.733832e+001 -1.074527e-001
      vertex   -4.049789e+001 2.574227e+001 -1.074527e-001
    endloop
  endfacet
  facet normal -9.844846e-001 1.735935e-001 2.560142e-002
    outer loop
      vertex   -4.078726e+001 2.410121e+001 -1.074527e-001
      vertex   -4.498625e+001 6.459948e-002 1.406318e+000
      vertex   -4.049789e+001 2.574227e+001 -1.074527e-001
    endloop
  endfacet
  facet normal -9.844846e-001 1.735935e-001 2.560038e-002
    outer loop
      vertex   -4.078726e+001 2.410121e+001 -1.074527e-001
      vertex   -4.108490e+001 2.241322e+001 -1.074527e-001
      vertex   -4.498625e+001 6.459948e-002 1.406318e+000
    endloop
  endfacet
  facet normal -9.844846e-001 1.735934e-001 2.559942e-002
    outer loop
      vertex   -4.498625e+001 6.459948e-002 1.406318e+000
      vertex   -4.108490e+001 2.241322e+001 -1.074527e-001
      vertex   -4.139118e+001 2.067626e+001 -1.074527e-001
    endloop
  endfacet
  facet normal -9.844847e-001 1.735934e-001 2.559855e-002
    outer loop
      vertex   -4.170647e+001 1.888816e+001 -1.074527e-001
      vertex   -4.498625e+001 6.459948e-002 1.406318e+000
      vertex   -4.139118e+001 2.067626e+001 -1.074527e-001
    endloop
  endfacet
  facet normal -9.844847e-001 1.735933e-001 2.559777e-002
    outer loop
      vertex   -4.170647e+001 1.888816e+001 -1.074527e-001
      vertex   -4.203119e+001 1.704663e+001 -1.074527e-001
      vertex   -4.498625e+001 6.459948e-002 1.406318e+000
    endloop
  endfacet
  facet normal -9.844847e-001 1.735933e-001 2.559708e-002
    outer loop
      vertex   -4.498625e+001 6.459948e-002 1.406318e+000
      vertex   -4.203119e+001 1.704663e+001 -1.074527e-001
      vertex   -4.236575e+001 1.514924e+001 -1.074527e-001
    endloop
  endfacet
  facet normal -9.844847e-001 1.735932e-001 2.559647e-002
    outer loop
      vertex   -4.271062e+001 1.319341e+001 -1.074527e-001
      vertex   -4.498625e+001 6.459948e-002 1.406318e+000
      vertex   -4.236575e+001 1.514924e+001 -1.074527e-001
    endloop
  endfacet
  facet normal -9.844848e-001 1.735931e-001 2.559595e-002
    outer loop
      vertex   -4.271062e+001 1.319341e+001 -1.074527e-001
      vertex   -4.306628e+001 1.117640e+001 -1.074527e-001
      vertex   -4.498625e+001 6.459948e-002 1.406318e+000
    endloop
  endfacet
  facet normal -9.844848e-001 1.735931e-001 2.559552e-002
    outer loop
      vertex   -4.498625e+001 6.459948e-002 1.406318e+000
      vertex   -4.306628e+001 1.117640e+001 -1.074527e-001
      vertex   -4.343324e+001 9.095290e+000 -1.074527e-001
    endloop
  endfacet
  facet normal -9.844848e-001 1.735930e-001 2.559517e-002
    outer loop
      vertex   -4.381205e+001 6.946976e+000 -1.074527e-001
      vertex   -4.498625e+001 6.459948e-002 1.406318e+000
      vertex   -4.343324e+001 9.095290e+000 -1.074527e-001
    endloop
  endfacet
  facet normal -9.844848e-001 1.735930e-001 2.559491e-002
    outer loop
      vertex   -4.381205e+001 6.946976e+000 -1.074527e-001
      vertex   -4.420329e+001 4.728149e+000 -1.074527e-001
      vertex   -4.498625e+001 6.459948e-002 1.406318e+000
    endloop
  endfacet
  facet normal -9.844848e-001 1.735929e-001 2.559473e-002
    outer loop
      vertex   -4.498625e+001 6.459948e-002 1.406318e+000
      vertex   -4.420329e+001 4.728149e+000 -1.074527e-001
      vertex   -4.460759e+001 2.435280e+000 -1.074527e-001
    endloop
  endfacet
  facet normal -9.844849e-001 1.735929e-001 2.559465e-002
    outer loop
      vertex   -4.502561e+001 6.459948e-002 -1.074527e-001
      vertex   -4.498625e+001 6.459948e-002 1.406318e+000
      vertex   -4.460759e+001 2.435280e+000 -1.074527e-001
    endloop
  endfacet
  facet normal -9.742023e-001 1.734311e-001 1.444008e-001
    outer loop
      vertex   -4.463329e+001 6.459948e-002 4.412846e+000
      vertex   -3.604293e+001 5.006460e+001 2.315871e+000
      vertex   -4.485532e+001 6.459948e-002 2.914929e+000
    endloop
  endfacet
  facet normal -9.811491e-001 1.734797e-001 8.515359e-002
    outer loop
      vertex   -4.485532e+001 6.459948e-002 2.914929e+000
      vertex   -3.617156e+001 5.006460e+001 1.107332e+000
      vertex   -4.498625e+001 6.459948e-002 1.406318e+000
    endloop
  endfacet
  facet normal 9.811491e-001 1.734797e-001 8.515359e-002
    outer loop
      vertex   4.803643e+000 6.459948e-002 2.914929e+000
      vertex   4.934575e+000 6.459948e-002 1.406318e+000
      vertex   -3.880116e+000 5.006460e+001 1.107332e+000
    endloop
  endfacet
  facet normal 9.843257e-001 1.737126e-001 3.044344e-002
    outer loop
      vertex   -3.880116e+000 5.006460e+001 1.107332e+000
      vertex   4.934575e+000 6.459948e-002 1.406318e+000
      vertex   -3.842545e+000 5.006460e+001 -1.074527e-001
    endloop
  endfacet
  facet normal 9.844849e-001 1.735929e-001 2.559465e-002
    outer loop
      vertex   4.973930e+000 6.459948e-002 -1.074527e-001
      vertex   4.555911e+000 2.435280e+000 -1.074527e-001
      vertex   4.934575e+000 6.459948e-002 1.406318e+000
    endloop
  endfacet
  facet normal 9.844848e-001 1.735929e-001 2.559473e-002
    outer loop
      vertex   4.934575e+000 6.459948e-002 1.406318e+000
      vertex   4.555911e+000 2.435280e+000 -1.074527e-001
      vertex   4.151612e+000 4.728149e+000 -1.074527e-001
    endloop
  endfacet
  facet normal 9.844848e-001 1.735930e-001 2.559491e-002
    outer loop
      vertex   3.760369e+000 6.946976e+000 -1.074527e-001
      vertex   4.934575e+000 6.459948e-002 1.406318e+000
      vertex   4.151612e+000 4.728149e+000 -1.074527e-001
    endloop
  endfacet
  facet normal 9.844848e-001 1.735930e-001 2.559517e-002
    outer loop
      vertex   3.760369e+000 6.946976e+000 -1.074527e-001
      vertex   3.381559e+000 9.095290e+000 -1.074527e-001
      vertex   4.934575e+000 6.459948e-002 1.406318e+000
    endloop
  endfacet
  facet normal 9.844848e-001 1.735931e-001 2.559552e-002
    outer loop
      vertex   4.934575e+000 6.459948e-002 1.406318e+000
      vertex   3.381559e+000 9.095290e+000 -1.074527e-001
      vertex   3.014600e+000 1.117640e+001 -1.074527e-001
    endloop
  endfacet
  facet normal 9.844848e-001 1.735931e-001 2.559595e-002
    outer loop
      vertex   2.658942e+000 1.319341e+001 -1.074527e-001
      vertex   4.934575e+000 6.459948e-002 1.406318e+000
      vertex   3.014600e+000 1.117640e+001 -1.074527e-001
    endloop
  endfacet
  facet normal 9.844847e-001 1.735932e-001 2.559647e-002
    outer loop
      vertex   2.658942e+000 1.319341e+001 -1.074527e-001
      vertex   2.314073e+000 1.514924e+001 -1.074527e-001
      vertex   4.934575e+000 6.459948e-002 1.406318e+000
    endloop
  endfacet
  facet normal 9.844847e-001 1.735933e-001 2.559708e-002
    outer loop
      vertex   4.934575e+000 6.459948e-002 1.406318e+000
      vertex   2.314073e+000 1.514924e+001 -1.074527e-001
      vertex   1.979508e+000 1.704663e+001 -1.074527e-001
    endloop
  endfacet
  facet normal 9.844847e-001 1.735933e-001 2.559777e-002
    outer loop
      vertex   1.654793e+000 1.888816e+001 -1.074527e-001
      vertex   4.934575e+000 6.459948e-002 1.406318e+000
      vertex   1.979508e+000 1.704663e+001 -1.074527e-001
    endloop
  endfacet
  facet normal 9.844847e-001 1.735934e-001 2.559855e-002
    outer loop
      vertex   1.654793e+000 1.888816e+001 -1.074527e-001
      vertex   1.339499e+000 2.067626e+001 -1.074527e-001
      vertex   4.934575e+000 6.459948e-002 1.406318e+000
    endloop
  endfacet
  facet normal 9.844846e-001 1.735934e-001 2.559942e-002
    outer loop
      vertex   4.934575e+000 6.459948e-002 1.406318e+000
      vertex   1.339499e+000 2.067626e+001 -1.074527e-001
      vertex   1.033222e+000 2.241322e+001 -1.074527e-001
    endloop
  endfacet
  facet normal 9.844846e-001 1.735935e-001 2.560038e-002
    outer loop
      vertex   7.355798e-001 2.410121e+001 -1.074527e-001
      vertex   4.934575e+000 6.459948e-002 1.406318e+000
      vertex   1.033222e+000 2.241322e+001 -1.074527e-001
    endloop
  endfacet
  facet normal 9.844846e-001 1.735935e-001 2.560142e-002
    outer loop
      vertex   7.355798e-001 2.410121e+001 -1.074527e-001
      vertex   4.462132e-001 2.574227e+001 -1.074527e-001
      vertex   4.934575e+000 6.459948e-002 1.406318e+000
    endloop
  endfacet
  facet normal 9.844845e-001 1.735936e-001 2.560255e-002
    outer loop
      vertex   4.934575e+000 6.459948e-002 1.406318e+000
      vertex   4.462132e-001 2.574227e+001 -1.074527e-001
      vertex   1.647815e-001 2.733832e+001 -1.074527e-001
    endloop
  endfacet
  facet normal 9.844845e-001 1.735937e-001 2.560377e-002
    outer loop
      vertex   -1.090372e-001 2.889120e+001 -1.074527e-001
      vertex   4.934575e+000 6.459948e-002 1.406318e+000
      vertex   1.647815e-001 2.733832e+001 -1.074527e-001
    endloop
  endfacet
  facet normal 9.844844e-001 1.735937e-001 2.560507e-002
    outer loop
      vertex   -1.090372e-001 2.889120e+001 -1.074527e-001
      vertex   -3.755478e-001 3.040264e+001 -1.074527e-001
      vertex   4.934575e+000 6.459948e-002 1.406318e+000
    endloop
  endfacet
  facet normal 9.844844e-001 1.735938e-001 2.560646e-002
    outer loop
      vertex   4.934575e+000 6.459948e-002 1.406318e+000
      vertex   -3.755478e-001 3.040264e+001 -1.074527e-001
      vertex   -6.350389e-001 3.187426e+001 -1.074527e-001
    endloop
  endfacet
  facet normal 9.844843e-001 1.735939e-001 2.560794e-002
    outer loop
      vertex   -8.877843e-001 3.330763e+001 -1.074527e-001
      vertex   4.934575e+000 6.459948e-002 1.406318e+000
      vertex   -6.350389e-001 3.187426e+001 -1.074527e-001
    endloop
  endfacet
  facet normal 9.844843e-001 1.735939e-001 2.560950e-002
    outer loop
      vertex   -8.877843e-001 3.330763e+001 -1.074527e-001
      vertex   -1.134044e+000 3.470421e+001 -1.074527e-001
      vertex   4.934575e+000 6.459948e-002 1.406318e+000
    endloop
  endfacet
  facet normal 9.844842e-001 1.735940e-001 2.561116e-002
    outer loop
      vertex   4.934575e+000 6.459948e-002 1.406318e+000
      vertex   -1.134044e+000 3.470421e+001 -1.074527e-001
      vertex   -1.374063e+000 3.606541e+001 -1.074527e-001
    endloop
  endfacet
  facet normal 9.844842e-001 1.735940e-001 2.561290e-002
    outer loop
      vertex   -1.608078e+000 3.739255e+001 -1.074527e-001
      vertex   4.934575e+000 6.459948e-002 1.406318e+000
      vertex   -1.374063e+000 3.606541e+001 -1.074527e-001
    endloop
  endfacet
  facet normal 9.844841e-001 1.735941e-001 2.561472e-002
    outer loop
      vertex   -1.608078e+000 3.739255e+001 -1.074527e-001
      vertex   -1.836310e+000 3.868689e+001 -1.074527e-001
      vertex   4.934575e+000 6.459948e-002 1.406318e+000
    endloop
  endfacet
  facet normal 9.844841e-001 1.735942e-001 2.561664e-002
    outer loop
      vertex   4.934575e+000 6.459948e-002 1.406318e+000
      vertex   -1.836310e+000 3.868689e+001 -1.074527e-001
      vertex   -2.058970e+000 3.994964e+001 -1.074527e-001
    endloop
  endfacet
  facet normal 9.844840e-001 1.735942e-001 2.561864e-002
    outer loop
      vertex   -2.276261e+000 4.118194e+001 -1.074527e-001
      vertex   4.934575e+000 6.459948e-002 1.406318e+000
      vertex   -2.058970e+000 3.994964e+001 -1.074527e-001
    endloop
  endfacet
  facet normal 9.844839e-001 1.735943e-001 2.562073e-002
    outer loop
      vertex   -2.276261e+000 4.118194e+001 -1.074527e-001
      vertex   -2.488375e+000 4.238487e+001 -1.074527e-001
      vertex   4.934575e+000 6.459948e-002 1.406318e+000
    endloop
  endfacet
  facet normal 9.844839e-001 1.735944e-001 2.562290e-002
    outer loop
      vertex   4.934575e+000 6.459948e-002 1.406318e+000
      vertex   -2.488375e+000 4.238487e+001 -1.074527e-001
      vertex   -2.695494e+000 4.355948e+001 -1.074527e-001
    endloop
  endfacet
  facet normal 9.844838e-001 1.735944e-001 2.562516e-002
    outer loop
      vertex   -2.897792e+000 4.470675e+001 -1.074527e-001
      vertex   4.934575e+000 6.459948e-002 1.406318e+000
      vertex   -2.695494e+000 4.355948e+001 -1.074527e-001
    endloop
  endfacet
  facet normal 9.844837e-001 1.735945e-001 2.562751e-002
    outer loop
      vertex   -2.897792e+000 4.470675e+001 -1.074527e-001
      vertex   -3.095437e+000 4.582762e+001 -1.074527e-001
      vertex   4.934575e+000 6.459948e-002 1.406318e+000
    endloop
  endfacet
  facet normal 0.000000e+000 -1.000000e+000 0.000000e+000
    outer loop
      vertex   -4.502561e+001 6.459948e-002 -1.074527e-001
      vertex   4.973930e+000 6.459948e-002 -1.074527e-001
      vertex   -4.498625e+001 6.459948e-002 1.406318e+000
    endloop
  endfacet
  facet normal 0.000000e+000 -1.000000e+000 0.000000e+000
    outer loop
      vertex   -4.498625e+001 6.459948e-002 1.406318e+000
      vertex   4.973930e+000 6.459948e-002 -1.074527e-001
      vertex   4.934575e+000 6.459948e-002 1.406318e+000
    endloop
  endfacet
  facet normal 0.000000e+000 -1.000000e+000 0.000000e+000
    outer loop
      vertex   4.803643e+000 6.459948e-002 2.914929e+000
      vertex   -4.498625e+001 6.459948e-002 1.406318e+000
      vertex   4.934575e+000 6.459948e-002 1.406318e+000
    endloop
  endfacet
  facet normal 0.000000e+000 -1.000000e+000 0.000000e+000
    outer loop
      vertex   4.803643e+000 6.459948e-002 2.914929e+000
      vertex   -4.485532e+001 6.459948e-002 2.914929e+000
      vertex   -4.498625e+001 6.459948e-002 1.406318e+000
    endloop
  endfacet
  facet normal 0.000000e+000 -1.000000e+000 0.000000e+000
    outer loop
      vertex   4.803643e+000 6.459948e-002 2.914929e+000
      vertex   4.581614e+000 6.459948e-002 4.412846e+000
      vertex   -4.485532e+001 6.459948e-002 2.914929e+000
    endloop
  endfacet
  facet normal 0.000000e+000 -1.000000e+000 0.000000e+000
    outer loop
      vertex   -4.485532e+001 6.459948e-002 2.914929e+000
      vertex   4.581614e+000 6.459948e-002 4.412846e+000
      vertex   -4.463329e+001 6.459948e-002 4.412846e+000
    endloop
  endfacet
  facet normal 0.000000e+000 -1.000000e+000 0.000000e+000
    outer loop
      vertex   -4.463329e+001 6.459948e-002 4.412846e+000
      vertex   4.581614e+000 6.459948e-002 4.412846e+000
      vertex   4.269304e+000 6.459948e-002 5.894572e+000
    endloop
  endfacet
  facet normal 0.000000e+000 -1.000000e+000 0.000000e+000
    outer loop
      vertex   -4.432098e+001 6.459948e-002 5.894572e+000
      vertex   4.269304e+000 6.459948e-002 5.894572e+000
      vertex   3.867858e+000 6.459948e-002 7.354672e+000
    endloop
  endfacet
  facet normal 0.000000e+000 -1.000000e+000 0.000000e+000
    outer loop
      vertex   -4.391954e+001 6.459948e-002 7.354672e+000
      vertex   3.867858e+000 6.459948e-002 7.354672e+000
      vertex   -4.343043e+001 6.459948e-002 8.787789e+000
    endloop
  endfacet
  facet normal 0.000000e+000 -1.000000e+000 0.000000e+000
    outer loop
      vertex   -4.391954e+001 6.459948e-002 7.354672e+000
      vertex   -4.432098e+001 6.459948e-002 5.894572e+000
      vertex   3.867858e+000 6.459948e-002 7.354672e+000
    endloop
  endfacet
  facet normal 0.000000e+000 -1.000000e+000 0.000000e+000
    outer loop
      vertex   -4.463329e+001 6.459948e-002 4.412846e+000
      vertex   4.269304e+000 6.459948e-002 5.894572e+000
      vertex   -4.432098e+001 6.459948e-002 5.894572e+000
    endloop
  endfacet
  facet normal 0.000000e+000 -1.000000e+000 0.000000e+000
    outer loop
      vertex   3.867858e+000 6.459948e-002 7.354672e+000
      vertex   3.378749e+000 6.459948e-002 8.787789e+000
      vertex   -4.343043e+001 6.459948e-002 8.787789e+000
    endloop
  endfacet
  facet normal 0.000000e+000 -1.000000e+000 0.000000e+000
    outer loop
      vertex   -4.343043e+001 6.459948e-002 8.787789e+000
      vertex   3.378749e+000 6.459948e-002 8.787789e+000
      vertex   -4.285545e+001 6.459948e-002 1.018866e+001
    endloop
  endfacet
  facet normal 0.000000e+000 -1.000000e+000 0.000000e+000
    outer loop
      vertex   -4.285545e+001 6.459948e-002 1.018866e+001
      vertex   3.378749e+000 6.459948e-002 8.787789e+000
      vertex   2.803771e+000 6.459948e-002 1.018866e+001
    endloop
  endfacet
  facet normal 0.000000e+000 -1.000000e+000 0.000000e+000
    outer loop
      vertex   2.145034e+000 6.459948e-002 1.155216e+001
      vertex   -4.285545e+001 6.459948e-002 1.018866e+001
      vertex   2.803771e+000 6.459948e-002 1.018866e+001
    endloop
  endfacet
  facet normal 0.000000e+000 -1.000000e+000 0.000000e+000
    outer loop
      vertex   2.145034e+000 6.459948e-002 1.155216e+001
      vertex   -4.219671e+001 6.459948e-002 1.155216e+001
      vertex   -4.285545e+001 6.459948e-002 1.018866e+001
    endloop
  endfacet
  facet normal 0.000000e+000 -1.000000e+000 0.000000e+000
    outer loop
      vertex   2.145034e+000 6.459948e-002 1.155216e+001
      vertex   -4.145663e+001 6.459948e-002 1.287327e+001
      vertex   -4.219671e+001 6.459948e-002 1.155216e+001
    endloop
  endfacet
  facet normal 0.000000e+000 -1.000000e+000 0.000000e+000
    outer loop
      vertex   2.145034e+000 6.459948e-002 1.155216e+001
      vertex   1.404955e+000 6.459948e-002 1.287327e+001
      vertex   -4.145663e+001 6.459948e-002 1.287327e+001
    endloop
  endfacet
  facet normal 0.000000e+000 -1.000000e+000 0.000000e+000
    outer loop
      vertex   -4.145663e+001 6.459948e-002 1.287327e+001
      vertex   1.404955e+000 6.459948e-002 1.287327e+001
      vertex   5.862484e-001 6.459948e-002 1.414715e+001
    endloop
  endfacet
  facet normal 0.000000e+000 -1.000000e+000 0.000000e+000
    outer loop
      vertex   -4.063793e+001 6.459948e-002 1.414715e+001
      vertex   5.862484e-001 6.459948e-002 1.414715e+001
      vertex   -3.080813e-001 6.459948e-002 1.536913e+001
    endloop
  endfacet
  facet normal 0.000000e+000 -1.000000e+000 0.000000e+000
    outer loop
      vertex   -3.974360e+001 6.459948e-002 1.536913e+001
      vertex   -3.080813e-001 6.459948e-002 1.536913e+001
      vertex   -1.274753e+000 6.459948e-002 1.653471e+001
    endloop
  endfacet
  facet normal 0.000000e+000 -1.000000e+000 0.000000e+000
    outer loop
      vertex   -3.877693e+001 6.459948e-002 1.653471e+001
      vertex   -1.274753e+000 6.459948e-002 1.653471e+001
      vertex   -3.774146e+001 6.459948e-002 1.763964e+001
    endloop
  endfacet
  facet normal 0.000000e+000 -1.000000e+000 0.000000e+000
    outer loop
      vertex   -3.877693e+001 6.459948e-002 1.653471e+001
      vertex   -3.974360e+001 6.459948e-002 1.536913e+001
      vertex   -1.274753e+000 6.459948e-002 1.653471e+001
    endloop
  endfacet
  facet normal 0.000000e+000 -1.000000e+000 0.000000e+000
    outer loop
      vertex   -4.145663e+001 6.459948e-002 1.287327e+001
      vertex   5.862484e-001 6.459948e-002 1.414715e+001
      vertex   -4.063793e+001 6.459948e-002 1.414715e+001
    endloop
  endfacet
  facet normal 0.000000e+000 -1.000000e+000 0.000000e+000
    outer loop
      vertex   -4.063793e+001 6.459948e-002 1.414715e+001
      vertex   -3.080813e-001 6.459948e-002 1.536913e+001
      vertex   -3.974360e+001 6.459948e-002 1.536913e+001
    endloop
  endfacet
  facet normal 0.000000e+000 -1.000000e+000 0.000000e+000
    outer loop
      vertex   -1.274753e+000 6.459948e-002 1.653471e+001
      vertex   -2.310220e+000 6.459948e-002 1.763964e+001
      vertex   -3.774146e+001 6.459948e-002 1.763964e+001
    endloop
  endfacet
  facet normal 0.000000e+000 -1.000000e+000 0.000000e+000
    outer loop
      vertex   -3.774146e+001 6.459948e-002 1.763964e+001
      vertex   -2.310220e+000 6.459948e-002 1.763964e+001
      vertex   -3.410684e+000 6.459948e-002 1.867985e+001
    endloop
  endfacet
  facet normal 0.000000e+000 -1.000000e+000 0.000000e+000
    outer loop
      vertex   -3.664099e+001 6.459948e-002 1.867985e+001
      vertex   -3.410684e+000 6.459948e-002 1.867985e+001
      vertex   -3.547957e+001 6.459948e-002 1.965152e+001
    endloop
  endfacet
  facet normal 0.000000e+000 -1.000000e+000 0.000000e+000
    outer loop
      vertex   -3.664099e+001 6.459948e-002 1.867985e+001
      vertex   -3.774146e+001 6.459948e-002 1.763964e+001
      vertex   -3.410684e+000 6.459948e-002 1.867985e+001
    endloop
  endfacet
  facet normal 0.000000e+000 -1.000000e+000 0.000000e+000
    outer loop
      vertex   -3.410684e+000 6.459948e-002 1.867985e+001
      vertex   -4.572107e+000 6.459948e-002 1.965152e+001
      vertex   -3.547957e+001 6.459948e-002 1.965152e+001
    endloop
  endfacet
  facet normal 0.000000e+000 -1.000000e+000 0.000000e+000
    outer loop
      vertex   -3.547957e+001 6.459948e-002 1.965152e+001
      vertex   -4.572107e+000 6.459948e-002 1.965152e+001
      vertex   -5.790228e+000 6.459948e-002 2.055109e+001
    endloop
  endfacet
  facet normal 0.000000e+000 -1.000000e+000 0.000000e+000
    outer loop
      vertex   -3.426145e+001 6.459948e-002 2.055109e+001
      vertex   -5.790228e+000 6.459948e-002 2.055109e+001
      vertex   -7.060577e+000 6.459948e-002 2.137527e+001
    endloop
  endfacet
  facet normal 0.000000e+000 -1.000000e+000 0.000000e+000
    outer loop
      vertex   -3.299110e+001 6.459948e-002 2.137527e+001
      vertex   -7.060577e+000 6.459948e-002 2.137527e+001
      vertex   -3.167318e+001 6.459948e-002 2.212102e+001
    endloop
  endfacet
  facet normal 0.000000e+000 -1.000000e+000 0.000000e+000
    outer loop
      vertex   -3.299110e+001 6.459948e-002 2.137527e+001
      vertex   -3.426145e+001 6.459948e-002 2.055109e+001
      vertex   -7.060577e+000 6.459948e-002 2.137527e+001
    endloop
  endfacet
  facet normal 0.000000e+000 -1.000000e+000 0.000000e+000
    outer loop
      vertex   -3.547957e+001 6.459948e-002 1.965152e+001
      vertex   -5.790228e+000 6.459948e-002 2.055109e+001
      vertex   -3.426145e+001 6.459948e-002 2.055109e+001
    endloop
  endfacet
  facet normal 0.000000e+000 -1.000000e+000 0.000000e+000
    outer loop
      vertex   -7.060577e+000 6.459948e-002 2.137527e+001
      vertex   -8.378495e+000 6.459948e-002 2.212102e+001
      vertex   -3.167318e+001 6.459948e-002 2.212102e+001
    endloop
  endfacet
  facet normal 0.000000e+000 -1.000000e+000 0.000000e+000
    outer loop
      vertex   -3.167318e+001 6.459948e-002 2.212102e+001
      vertex   -8.378495e+000 6.459948e-002 2.212102e+001
      vertex   -3.031253e+001 6.459948e-002 2.278561e+001
    endloop
  endfacet
  facet normal 0.000000e+000 -1.000000e+000 0.000000e+000
    outer loop
      vertex   -3.031253e+001 6.459948e-002 2.278561e+001
      vertex   -8.378495e+000 6.459948e-002 2.212102e+001
      vertex   -9.739145e+000 6.459948e-002 2.278561e+001
    endloop
  endfacet
  facet normal 0.000000e+000 -1.000000e+000 0.000000e+000
    outer loop
      vertex   -1.113754e+001 6.459948e-002 2.336660e+001
      vertex   -3.031253e+001 6.459948e-002 2.278561e+001
      vertex   -9.739145e+000 6.459948e-002 2.278561e+001
    endloop
  endfacet
  facet normal 0.000000e+000 -1.000000e+000 0.000000e+000
    outer loop
      vertex   -1.113754e+001 6.459948e-002 2.336660e+001
      vertex   -2.891414e+001 6.459948e-002 2.336660e+001
      vertex   -3.031253e+001 6.459948e-002 2.278561e+001
    endloop
  endfacet
  facet normal 0.000000e+000 -1.000000e+000 0.000000e+000
    outer loop
      vertex   -1.113754e+001 6.459948e-002 2.336660e+001
      vertex   -1.256854e+001 6.459948e-002 2.386187e+001
      vertex   -2.891414e+001 6.459948e-002 2.336660e+001
    endloop
  endfacet
  facet normal 0.000000e+000 -1.000000e+000 0.000000e+000
    outer loop
      vertex   -2.891414e+001 6.459948e-002 2.336660e+001
      vertex   -1.256854e+001 6.459948e-002 2.386187e+001
      vertex   -2.748314e+001 6.459948e-002 2.386187e+001
    endloop
  endfacet
  facet normal 0.000000e+000 -1.000000e+000 0.000000e+000
    outer loop
      vertex   -2.748314e+001 6.459948e-002 2.386187e+001
      vertex   -1.256854e+001 6.459948e-002 2.386187e+001
      vertex   -2.602478e+001 6.459948e-002 2.426958e+001
    endloop
  endfacet
  facet normal 0.000000e+000 -1.000000e+000 0.000000e+000
    outer loop
      vertex   -2.602478e+001 6.459948e-002 2.426958e+001
      vertex   -1.256854e+001 6.459948e-002 2.386187e+001
      vertex   -1.402690e+001 6.459948e-002 2.426958e+001
    endloop
  endfacet
  facet normal 0.000000e+000 -1.000000e+000 0.000000e+000
    outer loop
      vertex   -1.550727e+001 6.459948e-002 2.458826e+001
      vertex   -2.602478e+001 6.459948e-002 2.426958e+001
      vertex   -1.402690e+001 6.459948e-002 2.426958e+001
    endloop
  endfacet
  facet normal 0.000000e+000 -1.000000e+000 0.000000e+000
    outer loop
      vertex   -1.550727e+001 6.459948e-002 2.458826e+001
      vertex   -2.454441e+001 6.459948e-002 2.458826e+001
      vertex   -2.602478e+001 6.459948e-002 2.426958e+001
    endloop
  endfacet
  facet normal 0.000000e+000 -1.000000e+000 0.000000e+000
    outer loop
      vertex   -1.550727e+001 6.459948e-002 2.458826e+001
      vertex   -2.304746e+001 6.459948e-002 2.481672e+001
      vertex   -2.454441e+001 6.459948e-002 2.458826e+001
    endloop
  endfacet
  facet normal 0.000000e+000 -1.000000e+000 0.000000e+000
    outer loop
      vertex   -1.550727e+001 6.459948e-002 2.458826e+001
      vertex   -1.700422e+001 6.459948e-002 2.481672e+001
      vertex   -2.304746e+001 6.459948e-002 2.481672e+001
    endloop
  endfacet
  facet normal 0.000000e+000 -1.000000e+000 0.000000e+000
    outer loop
      vertex   -2.304746e+001 6.459948e-002 2.481672e+001
      vertex   -1.700422e+001 6.459948e-002 2.481672e+001
      vertex   -2.153943e+001 6.459948e-002 2.495414e+001
    endloop
  endfacet
  facet normal 0.000000e+000 -1.000000e+000 0.000000e+000
    outer loop
      vertex   -2.153943e+001 6.459948e-002 2.495414e+001
      vertex   -1.700422e+001 6.459948e-002 2.481672e+001
      vertex   -1.851225e+001 6.459948e-002 2.495414e+001
    endloop
  endfacet
  facet normal 0.000000e+000 -1.000000e+000 0.000000e+000
    outer loop
      vertex   -2.002584e+001 6.459948e-002 2.500000e+001
      vertex   -2.153943e+001 6.459948e-002 2.495414e+001
      vertex   -1.851225e+001 6.459948e-002 2.495414e+001
    endloop
  endfacet
  facet normal 2.195297e-016 1.000000e+000 -5.842336e-015
    outer loop
      vertex   -3.842545e+000 5.006460e+001 -1.074527e-001
      vertex   -3.620913e+001 5.006460e+001 -1.074527e-001
      vertex   -3.880116e+000 5.006460e+001 1.107332e+000
    endloop
  endfacet
  facet normal 0.000000e+000 1.000000e+000 0.000000e+000
    outer loop
      vertex   -3.880116e+000 5.006460e+001 1.107332e+000
      vertex   -3.620913e+001 5.006460e+001 -1.074527e-001
      vertex   -3.617156e+001 5.006460e+001 1.107332e+000
    endloop
  endfacet
  facet normal 0.000000e+000 1.000000e+000 0.000000e+000
    outer loop
      vertex   -3.604293e+001 5.006460e+001 2.315871e+000
      vertex   -3.880116e+000 5.006460e+001 1.107332e+000
      vertex   -3.617156e+001 5.006460e+001 1.107332e+000
    endloop
  endfacet
  facet normal 0.000000e+000 1.000000e+000 0.000000e+000
    outer loop
      vertex   -3.604293e+001 5.006460e+001 2.315871e+000
      vertex   -4.008746e+000 5.006460e+001 2.315871e+000
      vertex   -3.880116e+000 5.006460e+001 1.107332e+000
    endloop
  endfacet
  facet normal 0.000000e+000 1.000000e+000 0.000000e+000
    outer loop
      vertex   -3.604293e+001 5.006460e+001 2.315871e+000
      vertex   -4.227707e+000 5.006460e+001 3.511350e+000
      vertex   -4.008746e+000 5.006460e+001 2.315871e+000
    endloop
  endfacet
  facet normal 0.000000e+000 1.000000e+000 0.000000e+000
    outer loop
      vertex   -3.604293e+001 5.006460e+001 2.315871e+000
      vertex   -3.582397e+001 5.006460e+001 3.511350e+000
      vertex   -4.227707e+000 5.006460e+001 3.511350e+000
    endloop
  endfacet
  facet normal 0.000000e+000 1.000000e+000 0.000000e+000
    outer loop
      vertex   -4.227707e+000 5.006460e+001 3.511350e+000
      vertex   -3.582397e+001 5.006460e+001 3.511350e+000
      vertex   -3.551591e+001 5.006460e+001 4.687025e+000
    endloop
  endfacet
  facet normal 0.000000e+000 1.000000e+000 0.000000e+000
    outer loop
      vertex   -4.535767e+000 5.006460e+001 4.687025e+000
      vertex   -3.551591e+001 5.006460e+001 4.687025e+000
      vertex   -3.512049e+001 5.006460e+001 5.836266e+000
    endloop
  endfacet
  facet normal 0.000000e+000 1.000000e+000 0.000000e+000
    outer loop
      vertex   -4.931186e+000 5.006460e+001 5.836266e+000
      vertex   -3.512049e+001 5.006460e+001 5.836266e+000
      vertex   -5.411736e+000 5.006460e+001 6.952593e+000
    endloop
  endfacet
  facet normal 0.000000e+000 1.000000e+000 0.000000e+000
    outer loop
      vertex   -4.931186e+000 5.006460e+001 5.836266e+000
      vertex   -4.535767e+000 5.006460e+001 4.687025e+000
      vertex   -3.512049e+001 5.006460e+001 5.836266e+000
    endloop
  endfacet
  facet normal 0.000000e+000 1.000000e+000 0.000000e+000
    outer loop
      vertex   -4.227707e+000 5.006460e+001 3.511350e+000
      vertex   -3.551591e+001 5.006460e+001 4.687025e+000
      vertex   -4.535767e+000 5.006460e+001 4.687025e+000
    endloop
  endfacet
  facet normal 0.000000e+000 1.000000e+000 0.000000e+000
    outer loop
      vertex   -3.512049e+001 5.006460e+001 5.836266e+000
      vertex   -3.463994e+001 5.006460e+001 6.952593e+000
      vertex   -5.411736e+000 5.006460e+001 6.952593e+000
    endloop
  endfacet
  facet normal 0.000000e+000 1.000000e+000 0.000000e+000
    outer loop
      vertex   -5.411736e+000 5.006460e+001 6.952593e+000
      vertex   -3.463994e+001 5.006460e+001 6.952593e+000
      vertex   -5.974706e+000 5.006460e+001 8.029708e+000
    endloop
  endfacet
  facet normal 0.000000e+000 1.000000e+000 0.000000e+000
    outer loop
      vertex   -5.974706e+000 5.006460e+001 8.029708e+000
      vertex   -3.463994e+001 5.006460e+001 6.952593e+000
      vertex   -3.407697e+001 5.006460e+001 8.029708e+000
    endloop
  endfacet
  facet normal 0.000000e+000 1.000000e+000 0.000000e+000
    outer loop
      vertex   -3.343476e+001 5.006460e+001 9.061538e+000
      vertex   -5.974706e+000 5.006460e+001 8.029708e+000
      vertex   -3.407697e+001 5.006460e+001 8.029708e+000
    endloop
  endfacet
  facet normal 0.000000e+000 1.000000e+000 0.000000e+000
    outer loop
      vertex   -3.343476e+001 5.006460e+001 9.061538e+000
      vertex   -6.616921e+000 5.006460e+001 9.061538e+000
      vertex   -5.974706e+000 5.006460e+001 8.029708e+000
    endloop
  endfacet
  facet normal 0.000000e+000 1.000000e+000 0.000000e+000
    outer loop
      vertex   -3.343476e+001 5.006460e+001 9.061538e+000
      vertex   -7.334759e+000 5.006460e+001 1.004226e+001
      vertex   -6.616921e+000 5.006460e+001 9.061538e+000
    endloop
  endfacet
  facet normal 0.000000e+000 1.000000e+000 0.000000e+000
    outer loop
      vertex   -3.343476e+001 5.006460e+001 9.061538e+000
      vertex   -3.271692e+001 5.006460e+001 1.004226e+001
      vertex   -7.334759e+000 5.006460e+001 1.004226e+001
    endloop
  endfacet
  facet normal 0.000000e+000 1.000000e+000 0.000000e+000
    outer loop
      vertex   -7.334759e+000 5.006460e+001 1.004226e+001
      vertex   -3.271692e+001 5.006460e+001 1.004226e+001
      vertex   -3.192751e+001 5.006460e+001 1.096635e+001
    endloop
  endfacet
  facet normal 0.000000e+000 1.000000e+000 0.000000e+000
    outer loop
      vertex   -8.124172e+000 5.006460e+001 1.096635e+001
      vertex   -3.192751e+001 5.006460e+001 1.096635e+001
      vertex   -8.980707e+000 5.006460e+001 1.182859e+001
    endloop
  endfacet
  facet normal 0.000000e+000 1.000000e+000 0.000000e+000
    outer loop
      vertex   -8.124172e+000 5.006460e+001 1.096635e+001
      vertex   -7.334759e+000 5.006460e+001 1.004226e+001
      vertex   -3.192751e+001 5.006460e+001 1.096635e+001
    endloop
  endfacet
  facet normal 0.000000e+000 1.000000e+000 0.000000e+000
    outer loop
      vertex   -3.192751e+001 5.006460e+001 1.096635e+001
      vertex   -3.107097e+001 5.006460e+001 1.182859e+001
      vertex   -8.980707e+000 5.006460e+001 1.182859e+001
    endloop
  endfacet
  facet normal 0.000000e+000 1.000000e+000 0.000000e+000
    outer loop
      vertex   -8.980707e+000 5.006460e+001 1.182859e+001
      vertex   -3.107097e+001 5.006460e+001 1.182859e+001
      vertex   -3.015214e+001 5.006460e+001 1.262412e+001
    endloop
  endfacet
  facet normal 0.000000e+000 1.000000e+000 0.000000e+000
    outer loop
      vertex   -9.899535e+000 5.006460e+001 1.262412e+001
      vertex   -3.015214e+001 5.006460e+001 1.262412e+001
      vertex   -2.917621e+001 5.006460e+001 1.334846e+001
    endloop
  endfacet
  facet normal 0.000000e+000 1.000000e+000 0.000000e+000
    outer loop
      vertex   -1.087547e+001 5.006460e+001 1.334846e+001
      vertex   -2.917621e+001 5.006460e+001 1.334846e+001
      vertex   -1.190301e+001 5.006460e+001 1.399751e+001
    endloop
  endfacet
  facet normal 0.000000e+000 1.000000e+000 0.000000e+000
    outer loop
      vertex   -1.087547e+001 5.006460e+001 1.334846e+001
      vertex   -9.899535e+000 5.006460e+001 1.262412e+001
      vertex   -2.917621e+001 5.006460e+001 1.334846e+001
    endloop
  endfacet
  facet normal 0.000000e+000 1.000000e+000 0.000000e+000
    outer loop
      vertex   -8.980707e+000 5.006460e+001 1.182859e+001
      vertex   -3.015214e+001 5.006460e+001 1.262412e+001
      vertex   -9.899535e+000 5.006460e+001 1.262412e+001
    endloop
  endfacet
  facet normal 0.000000e+000 1.000000e+000 0.000000e+000
    outer loop
      vertex   -2.917621e+001 5.006460e+001 1.334846e+001
      vertex   -2.814866e+001 5.006460e+001 1.399751e+001
      vertex   -1.190301e+001 5.006460e+001 1.399751e+001
    endloop
  endfacet
  facet normal 0.000000e+000 1.000000e+000 0.000000e+000
    outer loop
      vertex   -1.190301e+001 5.006460e+001 1.399751e+001
      vertex   -2.814866e+001 5.006460e+001 1.399751e+001
      vertex   -1.297637e+001 5.006460e+001 1.456762e+001
    endloop
  endfacet
  facet normal 0.000000e+000 1.000000e+000 0.000000e+000
    outer loop
      vertex   -1.297637e+001 5.006460e+001 1.456762e+001
      vertex   -2.814866e+001 5.006460e+001 1.399751e+001
      vertex   -2.707531e+001 5.006460e+001 1.456762e+001
    endloop
  endfacet
  facet normal 0.000000e+000 1.000000e+000 0.000000e+000
    outer loop
      vertex   -1.408948e+001 5.006460e+001 1.505557e+001
      vertex   -2.707531e+001 5.006460e+001 1.456762e+001
      vertex   -2.596220e+001 5.006460e+001 1.505557e+001
    endloop
  endfacet
  facet normal 0.000000e+000 1.000000e+000 0.000000e+000
    outer loop
      vertex   -2.481561e+001 5.006460e+001 1.545861e+001
      vertex   -1.408948e+001 5.006460e+001 1.505557e+001
      vertex   -2.596220e+001 5.006460e+001 1.505557e+001
    endloop
  endfacet
  facet normal 0.000000e+000 1.000000e+000 0.000000e+000
    outer loop
      vertex   -2.481561e+001 5.006460e+001 1.545861e+001
      vertex   -1.523607e+001 5.006460e+001 1.545861e+001
      vertex   -1.408948e+001 5.006460e+001 1.505557e+001
    endloop
  endfacet
  facet normal 0.000000e+000 1.000000e+000 0.000000e+000
    outer loop
      vertex   -2.481561e+001 5.006460e+001 1.545861e+001
      vertex   -2.364200e+001 5.006460e+001 1.577447e+001
      vertex   -1.523607e+001 5.006460e+001 1.545861e+001
    endloop
  endfacet
  facet normal 0.000000e+000 1.000000e+000 0.000000e+000
    outer loop
      vertex   -1.523607e+001 5.006460e+001 1.545861e+001
      vertex   -2.364200e+001 5.006460e+001 1.577447e+001
      vertex   -1.640967e+001 5.006460e+001 1.577447e+001
    endloop
  endfacet
  facet normal 0.000000e+000 1.000000e+000 0.000000e+000
    outer loop
      vertex   -1.640967e+001 5.006460e+001 1.577447e+001
      vertex   -2.364200e+001 5.006460e+001 1.577447e+001
      vertex   -2.244801e+001 5.006460e+001 1.600136e+001
    endloop
  endfacet
  facet normal 0.000000e+000 1.000000e+000 0.000000e+000
    outer loop
      vertex   -1.760367e+001 5.006460e+001 1.600136e+001
      vertex   -2.244801e+001 5.006460e+001 1.600136e+001
      vertex   -2.124035e+001 5.006460e+001 1.613802e+001
    endloop
  endfacet
  facet normal 0.000000e+000 1.000000e+000 0.000000e+000
    outer loop
      vertex   -1.881133e+001 5.006460e+001 1.613802e+001
      vertex   -2.124035e+001 5.006460e+001 1.613802e+001
      vertex   -2.002584e+001 5.006460e+001 1.618365e+001
    endloop
  endfacet
  facet normal 0.000000e+000 1.000000e+000 0.000000e+000
    outer loop
      vertex   -1.881133e+001 5.006460e+001 1.613802e+001
      vertex   -1.760367e+001 5.006460e+001 1.600136e+001
      vertex   -2.124035e+001 5.006460e+001 1.613802e+001
    endloop
  endfacet
  facet normal 0.000000e+000 1.000000e+000 0.000000e+000
    outer loop
      vertex   -1.297637e+001 5.006460e+001 1.456762e+001
      vertex   -2.707531e+001 5.006460e+001 1.456762e+001
      vertex   -1.408948e+001 5.006460e+001 1.505557e+001
    endloop
  endfacet
  facet normal 0.000000e+000 1.000000e+000 0.000000e+000
    outer loop
      vertex   -1.640967e+001 5.006460e+001 1.577447e+001
      vertex   -2.244801e+001 5.006460e+001 1.600136e+001
      vertex   -1.760367e+001 5.006460e+001 1.600136e+001
    endloop
  endfacet
endsolid
